<mxfile host="app.diagrams.net" agent="Mozilla/5.0 (Windows NT 10.0; Win64; x64) AppleWebKit/537.36 (KHTML, like Gecko) Chrome/127.0.0.0 Safari/537.36" version="24.7.7">
  <diagram name="Seite-1" id="NHb4lE8WmygyMaFvKv83">
    <mxGraphModel dx="4788" dy="2514" grid="1" gridSize="10" guides="1" tooltips="1" connect="1" arrows="1" fold="1" page="1" pageScale="1" pageWidth="1654" pageHeight="2336" math="0" shadow="0">
      <root>
        <mxCell id="0" />
        <mxCell id="1" parent="0" />
        <mxCell id="0VnJ7Uc4w5-QSn8PoFOb-1" value="" style="group" vertex="1" connectable="0" parent="1">
          <mxGeometry x="420" y="350" width="748.15" height="1330" as="geometry" />
        </mxCell>
        <mxCell id="0VnJ7Uc4w5-QSn8PoFOb-2" value="" style="group;sketch=1;curveFitting=1;jiggle=2;strokeWidth=2;strokeColor=default;" vertex="1" connectable="0" parent="0VnJ7Uc4w5-QSn8PoFOb-1">
          <mxGeometry width="748.15" height="1330" as="geometry" />
        </mxCell>
        <mxCell id="0VnJ7Uc4w5-QSn8PoFOb-3" value="" style="rounded=0;whiteSpace=wrap;html=1;aspect=fixed;strokeWidth=2;container=0;sketch=1;curveFitting=1;jiggle=2;" vertex="1" parent="0VnJ7Uc4w5-QSn8PoFOb-2">
          <mxGeometry width="748.1471666666665" height="1330" as="geometry" />
        </mxCell>
        <mxCell id="0VnJ7Uc4w5-QSn8PoFOb-4" value="" style="endArrow=none;html=1;rounded=0;exitX=0.001;exitY=0.055;exitDx=0;exitDy=0;exitPerimeter=0;strokeWidth=2;sketch=1;curveFitting=1;jiggle=2;" edge="1" parent="0VnJ7Uc4w5-QSn8PoFOb-2">
          <mxGeometry width="50" height="50" relative="1" as="geometry">
            <mxPoint x="-0.0018528333334870695" y="55.22000000000009" as="sourcePoint" />
            <mxPoint x="746.2694957186453" y="54" as="targetPoint" />
          </mxGeometry>
        </mxCell>
        <mxCell id="0VnJ7Uc4w5-QSn8PoFOb-5" value="" style="endArrow=none;html=1;rounded=0;exitX=-0.001;exitY=0.893;exitDx=0;exitDy=0;exitPerimeter=0;entryX=0.998;entryY=0.892;entryDx=0;entryDy=0;entryPerimeter=0;strokeWidth=2;sketch=1;curveFitting=1;jiggle=2;" edge="1" parent="0VnJ7Uc4w5-QSn8PoFOb-2">
          <mxGeometry width="50" height="50" relative="1" as="geometry">
            <mxPoint x="-0.7481471666667403" y="1209.69" as="sourcePoint" />
            <mxPoint x="746.6508723333332" y="1208.3600000000001" as="targetPoint" />
          </mxGeometry>
        </mxCell>
        <mxCell id="0VnJ7Uc4w5-QSn8PoFOb-6" value="" style="html=1;verticalLabelPosition=bottom;align=center;labelBackgroundColor=#ffffff;verticalAlign=top;strokeWidth=3;strokeColor=#000000;shadow=0;dashed=0;shape=mxgraph.ios7.icons.settings;aspect=fixed;container=0;" vertex="1" parent="0VnJ7Uc4w5-QSn8PoFOb-2">
          <mxGeometry x="645.0524428905811" y="1235.2568961306233" width="55" height="55" as="geometry" />
        </mxCell>
        <mxCell id="0VnJ7Uc4w5-QSn8PoFOb-7" value="" style="outlineConnect=0;fontColor=#232F3E;gradientColor=none;fillColor=#232F3D;strokeColor=none;dashed=0;verticalLabelPosition=bottom;verticalAlign=top;align=center;html=1;fontSize=12;fontStyle=0;aspect=fixed;pointerEvents=1;shape=mxgraph.aws4.users;strokeWidth=0;container=0;" vertex="1" parent="0VnJ7Uc4w5-QSn8PoFOb-2">
          <mxGeometry x="41.9001511066339" y="1239.8235379463688" width="55" height="55" as="geometry" />
        </mxCell>
        <mxCell id="0VnJ7Uc4w5-QSn8PoFOb-8" value="" style="group;strokeWidth=1;strokeColor=none;sketch=1;curveFitting=1;jiggle=2;aspect=fixed;" vertex="1" connectable="0" parent="0VnJ7Uc4w5-QSn8PoFOb-2">
          <mxGeometry x="493.41968682409413" y="1233.498330717536" width="66" height="55.84" as="geometry" />
        </mxCell>
        <mxCell id="0VnJ7Uc4w5-QSn8PoFOb-9" value="" style="endArrow=none;html=1;rounded=0;strokeWidth=4;endSize=14;curved=0;sketch=1;curveFitting=1;jiggle=2;" edge="1" parent="0VnJ7Uc4w5-QSn8PoFOb-8">
          <mxGeometry width="50" height="50" relative="1" as="geometry">
            <mxPoint y="55.84" as="sourcePoint" />
            <mxPoint x="66" y="55.84" as="targetPoint" />
            <Array as="points" />
          </mxGeometry>
        </mxCell>
        <mxCell id="0VnJ7Uc4w5-QSn8PoFOb-10" value="" style="endArrow=none;html=1;rounded=0;strokeWidth=4;endSize=10;curved=0;sketch=1;curveFitting=1;jiggle=2;" edge="1" parent="0VnJ7Uc4w5-QSn8PoFOb-8">
          <mxGeometry width="50" height="50" relative="1" as="geometry">
            <mxPoint x="22.846153846153836" y="49.313246753246766" as="sourcePoint" />
            <mxPoint x="22.846153846153836" y="15.229090909090674" as="targetPoint" />
            <Array as="points" />
          </mxGeometry>
        </mxCell>
        <mxCell id="0VnJ7Uc4w5-QSn8PoFOb-11" value="" style="endArrow=none;html=1;rounded=0;strokeWidth=4;endSize=10;curved=0;sketch=1;curveFitting=1;jiggle=2;" edge="1" parent="0VnJ7Uc4w5-QSn8PoFOb-8">
          <mxGeometry width="50" height="50" relative="1" as="geometry">
            <mxPoint x="33.000000000000156" y="49.313246753246766" as="sourcePoint" />
            <mxPoint x="33.000000000000156" y="25.381818181818225" as="targetPoint" />
            <Array as="points" />
          </mxGeometry>
        </mxCell>
        <mxCell id="0VnJ7Uc4w5-QSn8PoFOb-12" value="" style="endArrow=none;html=1;rounded=0;strokeWidth=4;endSize=14;curved=0;sketch=1;curveFitting=1;jiggle=2;" edge="1" parent="0VnJ7Uc4w5-QSn8PoFOb-8">
          <mxGeometry width="50" height="50" relative="1" as="geometry">
            <mxPoint x="43.15384615384617" y="49.313246753246766" as="sourcePoint" />
            <mxPoint x="43.15384615384617" y="7.6145454545454445" as="targetPoint" />
            <Array as="points" />
          </mxGeometry>
        </mxCell>
        <mxCell id="0VnJ7Uc4w5-QSn8PoFOb-13" value="" style="endArrow=none;html=1;rounded=0;strokeWidth=4;endSize=14;curved=0;sketch=1;curveFitting=1;jiggle=2;" edge="1" parent="0VnJ7Uc4w5-QSn8PoFOb-8">
          <mxGeometry width="50" height="50" relative="1" as="geometry">
            <mxPoint x="53.30769230769228" y="49.313246753246766" as="sourcePoint" />
            <mxPoint x="53.30769230769228" as="targetPoint" />
            <Array as="points" />
          </mxGeometry>
        </mxCell>
        <mxCell id="0VnJ7Uc4w5-QSn8PoFOb-14" value="" style="endArrow=none;html=1;rounded=0;strokeWidth=4;endSize=10;curved=0;sketch=1;curveFitting=1;jiggle=2;" edge="1" parent="0VnJ7Uc4w5-QSn8PoFOb-8">
          <mxGeometry width="50" height="50" relative="1" as="geometry">
            <mxPoint x="12.692307692307722" y="49.313246753246766" as="sourcePoint" />
            <mxPoint x="12.692307692307722" y="28.42763636363623" as="targetPoint" />
            <Array as="points" />
          </mxGeometry>
        </mxCell>
        <mxCell id="0VnJ7Uc4w5-QSn8PoFOb-15" value="" style="group" vertex="1" connectable="0" parent="0VnJ7Uc4w5-QSn8PoFOb-2">
          <mxGeometry x="7" y="8" width="724.9997747777852" height="40.00000000000004" as="geometry" />
        </mxCell>
        <mxCell id="0VnJ7Uc4w5-QSn8PoFOb-16" value="&lt;font style=&quot;font-size: 24px;&quot;&gt;12:37&lt;/font&gt;" style="text;html=1;align=center;verticalAlign=middle;resizable=0;points=[];autosize=1;strokeColor=none;fillColor=none;fontSize=20;fontStyle=1;fontColor=#525252;" vertex="1" parent="0VnJ7Uc4w5-QSn8PoFOb-15">
          <mxGeometry x="-5" width="80" height="40" as="geometry" />
        </mxCell>
        <mxCell id="0VnJ7Uc4w5-QSn8PoFOb-17" value="" style="shape=image;html=1;verticalAlign=top;verticalLabelPosition=bottom;labelBackgroundColor=#ffffff;imageAspect=0;aspect=fixed;image=https://cdn4.iconfinder.com/data/icons/essential-app-2/16/battery-half-energy-charge-128.png;align=center;fontFamily=Helvetica;fontSize=12;fontColor=default;fillColor=#eeeeee;opacity=70;" vertex="1" parent="0VnJ7Uc4w5-QSn8PoFOb-15">
          <mxGeometry x="684.9997747777852" y="4.440892098500626e-14" width="40" height="40" as="geometry" />
        </mxCell>
        <mxCell id="0VnJ7Uc4w5-QSn8PoFOb-18" value="" style="shape=image;html=1;verticalAlign=top;verticalLabelPosition=bottom;labelBackgroundColor=#ffffff;imageAspect=0;aspect=fixed;image=https://cdn4.iconfinder.com/data/icons/internet-networking-and-communication-glyph-24/24/Mobile_mobile_wifi_wifi_connection_wifi_signals_wireless_internet-128.png;align=center;fontFamily=Helvetica;fontSize=12;fontColor=default;fillColor=#eeeeee;opacity=70;" vertex="1" parent="0VnJ7Uc4w5-QSn8PoFOb-15">
          <mxGeometry x="638.9997747777852" y="4.000000000000044" width="31" height="31" as="geometry" />
        </mxCell>
        <mxCell id="0VnJ7Uc4w5-QSn8PoFOb-19" value="" style="shape=image;html=1;verticalAlign=top;verticalLabelPosition=bottom;labelBackgroundColor=#ffffff;imageAspect=0;aspect=fixed;image=https://cdn4.iconfinder.com/data/icons/developer-set-3/128/antenna-128.png;align=center;fontFamily=Helvetica;fontSize=12;fontColor=default;fillColor=#eeeeee;opacity=80;" vertex="1" parent="0VnJ7Uc4w5-QSn8PoFOb-15">
          <mxGeometry x="594.9997747777852" y="5.000000000000044" width="30" height="30" as="geometry" />
        </mxCell>
        <mxCell id="0VnJ7Uc4w5-QSn8PoFOb-20" value="" style="rounded=1;whiteSpace=wrap;html=1;movable=1;resizable=1;rotatable=1;deletable=1;editable=1;locked=0;connectable=1;strokeWidth=3;container=0;sketch=1;curveFitting=1;jiggle=2;" vertex="1" parent="0VnJ7Uc4w5-QSn8PoFOb-2">
          <mxGeometry x="186.9063157894736" y="1240.2664264862767" width="46.84736842105261" height="49.7335735137232" as="geometry" />
        </mxCell>
        <mxCell id="0VnJ7Uc4w5-QSn8PoFOb-21" value="" style="endArrow=none;html=1;rounded=0;strokeWidth=5;endSize=14;curved=0;" edge="1" parent="0VnJ7Uc4w5-QSn8PoFOb-2">
          <mxGeometry width="50" height="50" relative="1" as="geometry">
            <mxPoint x="180.65999999999997" y="1249.1732573791887" as="sourcePoint" />
            <mxPoint x="239.99999999999997" y="1249.1732573791887" as="targetPoint" />
          </mxGeometry>
        </mxCell>
        <mxCell id="0VnJ7Uc4w5-QSn8PoFOb-22" value="" style="rounded=0;whiteSpace=wrap;html=1;strokeColor=#ffffff;strokeWidth=2;container=0;" vertex="1" parent="0VnJ7Uc4w5-QSn8PoFOb-2">
          <mxGeometry x="176.30904269503122" y="1231.8235379463688" width="70.62326745874196" height="14.834698539620822" as="geometry" />
        </mxCell>
        <mxCell id="0VnJ7Uc4w5-QSn8PoFOb-23" value="" style="shape=line;html=1;strokeWidth=6;strokeColor=#000000;fillColor=#000000;rotation=-90;container=0;" vertex="1" parent="0VnJ7Uc4w5-QSn8PoFOb-2">
          <mxGeometry x="194.71421052631575" y="1238.2807005328925" width="6.964902368421051" height="11.39350956859841" as="geometry" />
        </mxCell>
        <mxCell id="0VnJ7Uc4w5-QSn8PoFOb-24" value="" style="shape=line;html=1;strokeWidth=6;strokeColor=#000000;fillColor=#000000;rotation=-90;gradientColor=none;container=0;" vertex="1" parent="0VnJ7Uc4w5-QSn8PoFOb-2">
          <mxGeometry x="219.69947368421043" y="1238.2807005328925" width="6.964902368421051" height="11.39350956859841" as="geometry" />
        </mxCell>
        <mxCell id="0VnJ7Uc4w5-QSn8PoFOb-25" value="" style="group" vertex="1" connectable="0" parent="0VnJ7Uc4w5-QSn8PoFOb-2">
          <mxGeometry x="180" y="96.37" width="385.67" height="90" as="geometry" />
        </mxCell>
        <mxCell id="0VnJ7Uc4w5-QSn8PoFOb-26" value="&lt;h1 style=&quot;forced-color-adjust: none; color: rgb(0, 0, 0); font-family: Roboto; font-style: normal; font-variant-ligatures: normal; font-variant-caps: normal; letter-spacing: normal; orphans: 2; text-align: center; text-indent: 0px; text-transform: none; widows: 2; word-spacing: 0px; -webkit-text-stroke-width: 0px; white-space: nowrap; text-decoration-thickness: initial; text-decoration-style: initial; text-decoration-color: initial;&quot;&gt;&lt;span style=&quot;forced-color-adjust: none; font-weight: normal;&quot;&gt;&lt;font style=&quot;forced-color-adjust: none; font-size: 32px;&quot;&gt;Dienstplan November 2024&lt;/font&gt;&lt;/span&gt;&lt;/h1&gt;" style="text;whiteSpace=wrap;html=1;" vertex="1" parent="0VnJ7Uc4w5-QSn8PoFOb-25">
          <mxGeometry width="305.6694993615429" height="90" as="geometry" />
        </mxCell>
        <mxCell id="0VnJ7Uc4w5-QSn8PoFOb-27" value="" style="group" vertex="1" connectable="0" parent="0VnJ7Uc4w5-QSn8PoFOb-2">
          <mxGeometry x="50" y="110" width="50" height="50" as="geometry" />
        </mxCell>
        <mxCell id="0VnJ7Uc4w5-QSn8PoFOb-28" value="" style="ellipse;whiteSpace=wrap;html=1;aspect=fixed;fillColor=default;strokeColor=#F7F7F7;shadow=1;" vertex="1" parent="0VnJ7Uc4w5-QSn8PoFOb-27">
          <mxGeometry width="50" height="50" as="geometry" />
        </mxCell>
        <mxCell id="0VnJ7Uc4w5-QSn8PoFOb-29" value="" style="shape=image;verticalLabelPosition=bottom;labelBackgroundColor=default;verticalAlign=top;aspect=fixed;imageAspect=0;image=data:image/png,iVBORw0KGgoAAAANSUhEUgAAAQAAAAEACAYAAABccqhmAAAAAXNSR0IArs4c6QAAChVJREFUeF7t3NGRHVUMRdEmE8gEQiEyhwKZQCiUqbFryvbMtN9r9dW5Wv7hp5+utI+0ix/7l8MfBBAYS+CXsZMbHAEEDgKwBAgMJkAAg8M3OgIEYAcQGEyAAAaHb3QECMAOIDCYAAEMDt/oCBCAHUBgMAECGBy+0REgADuAwGACBDA4fKMjQAB2AIHBBAhgcPhGR4AA7AACgwkQwODwjY4AAdgBBAYTIIDB4RsdAQKwAwgMJkAAg8M3OgIEYAcQGEyAAAaHb3QECMAOIDCYAAEMDt/oCBCAHUBgMAECGBy+0REgADuAwGACBDA4fKMjQAB2AIHBBAhgcPhGR4AA7AACgwkQwODwjY4AAdgBBAYTIIDB4RsdAQKwAwgMJkAAg8M3OgIEYAcQGEyAAAaHb3QECMAOIDCYAAEMDt/oCBCAHUBgMAECGBy+0REgADuAwGACBDA4fKMjQAB2AIHBBAhgcPhGR4AA7AACgwkQwODwjY4AAdgBBAYTIIDB4RsdAQKwAwgMJkAAg8M3OgIEYAcQGEyAAAaHb3QECMAOIDCYAAEMDt/oCBCAHUBgMAECGBy+0REgADuAwGACBDA4fKMjQAB2AIHBBAhgcPhGR4AA7AACgwkQwODwjY4AAdiBqwn8fhzHp+M4fru6sHrXEyCA65lOrvj5+P96AfAvCfRfBQLon1FKh6+P/0vPJNA8PQJoHlBIez86fhIICI8AAkJq3uJ7x08CzcMjgOYBNW/vzPGTQOMQCaBxOM1b+5njJ4GmYRJA02Cat/XI8ZNAw1AJoGEozVt65vhJoFm4BNAskObtXHH8JNAoZAJoFEbzVq48fhJoEjYBNAmieRsVx08CDUIngAYhNG+h8vhJYHH4BLA4gObP33H8JLBwCQhgIfzmT995/CSwaBkIYBH45s+uOP7PSPzloZsXgwBuBh7wnOMPCOmqFgngKpJ71HH8e+R4egoCOI1q+w8d//YRfz8gAQwM/QcjO/6he0AAQ4N/NbbjH7wDBDA4/OM4HP/s/A8CmLsAjn9u9l8nJ4CZS+D4Z+b+3dQEMG8RHP+8zN+cmABmLYPjn5X3h9MSwIeItvnA8W8T5XWDEMB1LDtXcvyd01nYGwEshH/T047/JtCJzxBAYmrne3b851mN/JIA9o3d8e+b7WWTEcBlKFsVcvyt4ujbDAH0zebRzhz/o+QG/o4A9grd8e+VZ/k0BFCO+LYHHP9tqPd5iAD2yNLx75Hj7VMQwO3IL3/Q8V+OdE5BAsjO2vFn57e8ewJYHsHDDTj+h9H54RcCBJC5C44/M7d2XRNAu0g+bMjxf4jIB2cJEMBZUj2+c/w9ctimCwLIidLx52QV0ykBZETl+DNyiuuSAPpH5vj7ZxTbIQH0js7x984nvjsC6Buh4++bzTadEUDPKB1/z1y264oA+kXq+Ptlsm1HBNArWsffK4/tuyGAPhE7/j5ZjOmEAHpE7fh75DCuCwJYH7njX5/B2A4IYG30jn8t//GvE8C6FXD869h7+YUAAaxZhZXH/+dxHH+vGdur3QgQwP2JOP77mXvxDQIEcO9qOP57eXvtAwIEcN+KOP77WHvpJAECOAnqyc8c/5MA/byGAAHUcH1d1fHXM/bCgwQI4EFwJ3/m+E+C8tkaAgRQx93x17FV+SICBHARyG/KOP4arqpeTIAALgb6Uu7X4zj+qSn9btV/j+P44ziOz//1B4EPCRDAh4ge/oAEHkbnh3cRIIBa0iRQy1f1JwkQwJMAT/ycBE5A8skaAgRwD3cSuIezV36SAAH8JLAnPieBJ+D5aQ0BAqjh+lZVEriXt9c+IEAA968ICdzP3ItvECCANatBAmu4e/UbAgSwbiVIYB17L78QIIC1q0ACa/mPf50A1q8ACazPYGwHBNAjehLokcO4LgigT+Qk0CeLMZ0QQK+oSaBXHtt3QwD9IiaBfpls2xEB9IyWBHrmsl1XBNA3UhLom802nRFA7yhJoHc+8d0RQP8ISaB/RrEdEkBGdCSQkVNclwSQExkJ5GQV0ykBxET1f6MkkJVX+24JoH1E3zVIAnmZte2YANpG825jJJCZW7uuCaBdJKcbIoHTqHz4FgECyN4NEsjOb3n3BLA8gqcbIIGnEc4tQAB7ZE8Ce+R4+xQEcDvysgdJoAztvoUJYK9sSWCvPMunIYByxLc/QAK3I899kABys3uvcxLYM9fLpyKAy5G2KUgCbaLo2wgB9M3mis5I4AqKG9cggI3DfRmNBPbP+OEJCeBhdFE/JIGouO5rlgDuY736JRJYnUDD9wmgYSiFLZFAIdzE0gSQmNpzPZPAc/y2+jUBbBXn6WFI4DSqvT8kgL3zfW86Epib/dfJCWD2EpDA7PwPAhi+AP6h0dkLQACz8/8yvf8TGLoHBDA0+B+MTQIDd4EABob+zsgkMGwfCGBY4CfGJYETkHb5hAB2SfLaOUjgWp5tqxFA22iWN7ZCAn8fx/HH8skHNUAAg8J+YNQ7JeD4Hwjo2Z8QwLME9//9HRJw/Iv2iAAWgQ97tlICjn/hMhDAQvhhT1dIwPEvXgICWBxA2PNXSsDxNwifABqEENbCFRJw/E1CJ4AmQYS18YwEHH+jsAmgURhhrTwiAcffLGQCaBZIWDs/IwHH3zBcAmgYSlhLZyTg+JuGSgBNgwlr6z0JOP7GYRJA43DCWvuRBBx/8xAJoHlAYe29loDjDwiPAAJCCmvxswQ++Vt9GakRQEZOukSghAABlGBVFIEMAgSQkZMuESghQAAlWBVFIIMAAWTkpEsESggQQAlWRRHIIEAAGTnpEoESAgRQglVRBDIIEEBGTrpEoIQAAZRgVRSBDAIEkJGTLhEoIUAAJVgVRSCDAAFk5KRLBEoIEEAJVkURyCBAABk56RKBEgIEUIJVUQQyCBBARk66RKCEAAGUYFUUgQwCBJCRky4RKCFAACVYFUUggwABZOSkSwRKCBBACVZFEcggQAAZOekSgRICBFCCVVEEMggQQEZOukSghAABlGBVFIEMAgSQkZMuESghQAAlWBVFIIMAAWTkpEsESggQQAlWRRHIIEAAGTnpEoESAgRQglVRBDIIEEBGTrpEoIQAAZRgVRSBDAIEkJGTLhEoIUAAJVgVRSCDAAFk5KRLBEoIEEAJVkURyCBAABk56RKBEgIEUIJVUQQyCBBARk66RKCEAAGUYFUUgQwCBJCRky4RKCFAACVYFUUggwABZOSkSwRKCBBACVZFEcggQAAZOekSgRICBFCCVVEEMggQQEZOukSghAABlGBVFIEMAgSQkZMuESghQAAlWBVFIIMAAWTkpEsESggQQAlWRRHIIEAAGTnpEoESAgRQglVRBDIIEEBGTrpEoIQAAZRgVRSBDAIEkJGTLhEoIUAAJVgVRSCDAAFk5KRLBEoIEEAJVkURyCBAABk56RKBEgIEUIJVUQQyCPwHGrw5EMQ7ZxIAAAAASUVORK5CYII=;" vertex="1" parent="0VnJ7Uc4w5-QSn8PoFOb-27">
          <mxGeometry width="50" height="50" as="geometry" />
        </mxCell>
        <mxCell id="0VnJ7Uc4w5-QSn8PoFOb-30" value="" style="rounded=0;whiteSpace=wrap;html=1;sketch=1;curveFitting=1;jiggle=2;strokeWidth=2;strokeColor=#4D4D4D;" vertex="1" parent="0VnJ7Uc4w5-QSn8PoFOb-1">
          <mxGeometry x="50" y="268" width="640" height="847" as="geometry" />
        </mxCell>
        <mxCell id="0VnJ7Uc4w5-QSn8PoFOb-31" value="" style="group" vertex="1" connectable="0" parent="0VnJ7Uc4w5-QSn8PoFOb-1">
          <mxGeometry x="50" y="197" width="640" height="40" as="geometry" />
        </mxCell>
        <mxCell id="0VnJ7Uc4w5-QSn8PoFOb-32" value="" style="rounded=0;whiteSpace=wrap;html=1;sketch=1;curveFitting=1;jiggle=2;strokeWidth=2;strokeColor=#4D4D4D;" vertex="1" parent="0VnJ7Uc4w5-QSn8PoFOb-31">
          <mxGeometry width="640" height="40" as="geometry" />
        </mxCell>
        <mxCell id="0VnJ7Uc4w5-QSn8PoFOb-33" value="" style="endArrow=none;html=1;rounded=0;entryX=0.5;entryY=0;entryDx=0;entryDy=0;strokeWidth=2;exitX=0.5;exitY=1;exitDx=0;exitDy=0;sketch=1;curveFitting=1;jiggle=2;strokeColor=#4D4D4D;" edge="1" parent="0VnJ7Uc4w5-QSn8PoFOb-31" source="0VnJ7Uc4w5-QSn8PoFOb-32" target="0VnJ7Uc4w5-QSn8PoFOb-32">
          <mxGeometry width="50" height="50" relative="1" as="geometry">
            <mxPoint x="-50" y="470" as="sourcePoint" />
            <mxPoint x="123" y="484" as="targetPoint" />
          </mxGeometry>
        </mxCell>
        <mxCell id="0VnJ7Uc4w5-QSn8PoFOb-34" value="&lt;font style=&quot;font-size: 22px;&quot;&gt;Listen-Ansicht&lt;/font&gt;" style="text;html=1;align=center;verticalAlign=middle;resizable=0;points=[];autosize=1;strokeColor=none;fillColor=none;" vertex="1" parent="0VnJ7Uc4w5-QSn8PoFOb-31">
          <mxGeometry x="105" width="160" height="40" as="geometry" />
        </mxCell>
        <mxCell id="0VnJ7Uc4w5-QSn8PoFOb-35" value="&lt;font style=&quot;font-size: 22px;&quot;&gt;Kalender-Ansicht&lt;/font&gt;" style="text;html=1;align=center;verticalAlign=middle;resizable=0;points=[];autosize=1;strokeColor=none;fillColor=none;" vertex="1" parent="0VnJ7Uc4w5-QSn8PoFOb-31">
          <mxGeometry x="399" width="190" height="40" as="geometry" />
        </mxCell>
        <mxCell id="0VnJ7Uc4w5-QSn8PoFOb-36" value="" style="shape=image;html=1;verticalAlign=top;verticalLabelPosition=bottom;labelBackgroundColor=#ffffff;imageAspect=0;aspect=fixed;image=https://cdn4.iconfinder.com/data/icons/essentials-71/24/011_-_Calendar-128.png" vertex="1" parent="0VnJ7Uc4w5-QSn8PoFOb-31">
          <mxGeometry x="374" y="5" width="28" height="28" as="geometry" />
        </mxCell>
        <mxCell id="0VnJ7Uc4w5-QSn8PoFOb-37" value="" style="shape=image;html=1;verticalAlign=top;verticalLabelPosition=bottom;labelBackgroundColor=#ffffff;imageAspect=0;aspect=fixed;image=https://cdn4.iconfinder.com/data/icons/essential-part-1/32/94-List-128.png" vertex="1" parent="0VnJ7Uc4w5-QSn8PoFOb-31">
          <mxGeometry x="79" y="6" width="27" height="27" as="geometry" />
        </mxCell>
        <mxCell id="0VnJ7Uc4w5-QSn8PoFOb-38" value="" style="group;opacity=50;" vertex="1" connectable="0" parent="1">
          <mxGeometry x="471.5899999999999" y="634" width="650.41" height="820" as="geometry" />
        </mxCell>
        <mxCell id="0VnJ7Uc4w5-QSn8PoFOb-39" value="" style="shape=table;startSize=0;container=1;collapsible=0;childLayout=tableLayout;sketch=1;hachureGap=4;jiggle=2;curveFitting=1;fontFamily=Architects Daughter;fontSource=https%3A%2F%2Ffonts.googleapis.com%2Fcss%3Ffamily%3DArchitects%2BDaughter;strokeColor=#CCCCCC;verticalAlign=top;" vertex="1" parent="0VnJ7Uc4w5-QSn8PoFOb-38">
          <mxGeometry x="4.1657630410225" y="51.51714594706551" width="624.7694230648453" height="769.4828540529345" as="geometry" />
        </mxCell>
        <mxCell id="0VnJ7Uc4w5-QSn8PoFOb-40" value="" style="shape=tableRow;horizontal=0;startSize=0;swimlaneHead=0;swimlaneBody=0;strokeColor=inherit;top=0;left=0;bottom=0;right=0;collapsible=0;dropTarget=0;fillColor=none;points=[[0,0.5],[1,0.5]];portConstraint=eastwest;sketch=1;hachureGap=4;jiggle=2;curveFitting=1;fontFamily=Architects Daughter;fontSource=https%3A%2F%2Ffonts.googleapis.com%2Fcss%3Ffamily%3DArchitects%2BDaughter;" vertex="1" parent="0VnJ7Uc4w5-QSn8PoFOb-39">
          <mxGeometry width="624.7694230648453" height="156" as="geometry" />
        </mxCell>
        <mxCell id="0VnJ7Uc4w5-QSn8PoFOb-41" value="" style="shape=partialRectangle;html=1;whiteSpace=wrap;connectable=0;strokeColor=inherit;overflow=hidden;fillColor=#CCCCCC;top=0;left=0;bottom=0;right=0;pointerEvents=1;sketch=1;hachureGap=4;jiggle=2;curveFitting=1;fontFamily=Architects Daughter;fontSource=https%3A%2F%2Ffonts.googleapis.com%2Fcss%3Ffamily%3DArchitects%2BDaughter;verticalAlign=top;spacingTop=10;fontSize=24;align=center;fontColor=default;" vertex="1" parent="0VnJ7Uc4w5-QSn8PoFOb-40">
          <mxGeometry width="90" height="156" as="geometry">
            <mxRectangle width="90" height="156" as="alternateBounds" />
          </mxGeometry>
        </mxCell>
        <mxCell id="0VnJ7Uc4w5-QSn8PoFOb-42" value="" style="shape=partialRectangle;html=1;whiteSpace=wrap;connectable=0;strokeColor=inherit;overflow=hidden;fillColor=#CCCCCC;top=0;left=0;bottom=0;right=0;pointerEvents=1;sketch=1;hachureGap=4;jiggle=2;curveFitting=1;fontFamily=Architects Daughter;fontSource=https%3A%2F%2Ffonts.googleapis.com%2Fcss%3Ffamily%3DArchitects%2BDaughter;verticalAlign=top;spacingTop=10;fontSize=24;align=center;fontColor=default;" vertex="1" parent="0VnJ7Uc4w5-QSn8PoFOb-40">
          <mxGeometry x="90" width="89" height="156" as="geometry">
            <mxRectangle width="89" height="156" as="alternateBounds" />
          </mxGeometry>
        </mxCell>
        <mxCell id="0VnJ7Uc4w5-QSn8PoFOb-43" value="" style="shape=partialRectangle;html=1;whiteSpace=wrap;connectable=0;strokeColor=inherit;overflow=hidden;fillColor=#CCCCCC;top=0;left=0;bottom=0;right=0;pointerEvents=1;sketch=1;hachureGap=4;jiggle=2;curveFitting=1;fontFamily=Architects Daughter;fontSource=https%3A%2F%2Ffonts.googleapis.com%2Fcss%3Ffamily%3DArchitects%2BDaughter;spacingTop=10;verticalAlign=top;fontSize=24;align=center;fontColor=default;" vertex="1" parent="0VnJ7Uc4w5-QSn8PoFOb-40">
          <mxGeometry x="179" width="88" height="156" as="geometry">
            <mxRectangle width="88" height="156" as="alternateBounds" />
          </mxGeometry>
        </mxCell>
        <mxCell id="0VnJ7Uc4w5-QSn8PoFOb-44" value="" style="shape=partialRectangle;html=1;whiteSpace=wrap;connectable=0;strokeColor=inherit;overflow=hidden;fillColor=#CCCCCC;top=0;left=0;bottom=0;right=0;pointerEvents=1;hachureGap=4;fontFamily=Architects Daughter;fontSource=https%3A%2F%2Ffonts.googleapis.com%2Fcss%3Ffamily%3DArchitects%2BDaughter;spacingTop=10;fontSize=24;verticalAlign=top;sketch=1;curveFitting=1;jiggle=2;" vertex="1" parent="0VnJ7Uc4w5-QSn8PoFOb-40">
          <mxGeometry x="267" width="90" height="156" as="geometry">
            <mxRectangle width="90" height="156" as="alternateBounds" />
          </mxGeometry>
        </mxCell>
        <mxCell id="0VnJ7Uc4w5-QSn8PoFOb-45" value="1" style="shape=partialRectangle;html=1;whiteSpace=wrap;connectable=0;strokeColor=inherit;overflow=hidden;fillColor=none;top=0;left=0;bottom=0;right=0;pointerEvents=1;sketch=1;hachureGap=4;jiggle=2;curveFitting=1;fontFamily=Architects Daughter;fontSource=https%3A%2F%2Ffonts.googleapis.com%2Fcss%3Ffamily%3DArchitects%2BDaughter;spacingTop=10;fontSize=24;verticalAlign=top;" vertex="1" parent="0VnJ7Uc4w5-QSn8PoFOb-40">
          <mxGeometry x="357" width="90" height="156" as="geometry">
            <mxRectangle width="90" height="156" as="alternateBounds" />
          </mxGeometry>
        </mxCell>
        <mxCell id="0VnJ7Uc4w5-QSn8PoFOb-46" value="2" style="shape=partialRectangle;html=1;whiteSpace=wrap;connectable=0;strokeColor=inherit;overflow=hidden;fillColor=none;top=0;left=0;bottom=0;right=0;pointerEvents=1;sketch=1;hachureGap=4;jiggle=2;curveFitting=1;fontFamily=Architects Daughter;fontSource=https%3A%2F%2Ffonts.googleapis.com%2Fcss%3Ffamily%3DArchitects%2BDaughter;spacingTop=10;fontSize=24;verticalAlign=top;" vertex="1" parent="0VnJ7Uc4w5-QSn8PoFOb-40">
          <mxGeometry x="447" width="89" height="156" as="geometry">
            <mxRectangle width="89" height="156" as="alternateBounds" />
          </mxGeometry>
        </mxCell>
        <mxCell id="0VnJ7Uc4w5-QSn8PoFOb-47" value="3" style="shape=partialRectangle;html=1;whiteSpace=wrap;connectable=0;strokeColor=inherit;overflow=hidden;fillColor=none;top=0;left=0;bottom=0;right=0;pointerEvents=1;sketch=1;hachureGap=4;jiggle=2;curveFitting=1;fontFamily=Architects Daughter;fontSource=https%3A%2F%2Ffonts.googleapis.com%2Fcss%3Ffamily%3DArchitects%2BDaughter;spacingTop=10;fontSize=24;verticalAlign=top;" vertex="1" parent="0VnJ7Uc4w5-QSn8PoFOb-40">
          <mxGeometry x="536" width="89" height="156" as="geometry">
            <mxRectangle width="89" height="156" as="alternateBounds" />
          </mxGeometry>
        </mxCell>
        <mxCell id="0VnJ7Uc4w5-QSn8PoFOb-48" value="" style="shape=tableRow;horizontal=0;startSize=0;swimlaneHead=0;swimlaneBody=0;strokeColor=inherit;top=0;left=0;bottom=0;right=0;collapsible=0;dropTarget=0;fillColor=none;points=[[0,0.5],[1,0.5]];portConstraint=eastwest;sketch=1;hachureGap=4;jiggle=2;curveFitting=1;fontFamily=Architects Daughter;fontSource=https%3A%2F%2Ffonts.googleapis.com%2Fcss%3Ffamily%3DArchitects%2BDaughter;" vertex="1" parent="0VnJ7Uc4w5-QSn8PoFOb-39">
          <mxGeometry y="156" width="624.7694230648453" height="152" as="geometry" />
        </mxCell>
        <mxCell id="0VnJ7Uc4w5-QSn8PoFOb-49" value="4" style="shape=partialRectangle;html=1;whiteSpace=wrap;connectable=0;strokeColor=inherit;overflow=hidden;fillColor=none;top=0;left=0;bottom=0;right=0;pointerEvents=1;sketch=1;hachureGap=4;jiggle=2;curveFitting=1;fontFamily=Architects Daughter;fontSource=https%3A%2F%2Ffonts.googleapis.com%2Fcss%3Ffamily%3DArchitects%2BDaughter;spacingTop=10;fontSize=24;verticalAlign=top;" vertex="1" parent="0VnJ7Uc4w5-QSn8PoFOb-48">
          <mxGeometry width="90" height="152" as="geometry">
            <mxRectangle width="90" height="152" as="alternateBounds" />
          </mxGeometry>
        </mxCell>
        <mxCell id="0VnJ7Uc4w5-QSn8PoFOb-50" value="5" style="shape=partialRectangle;html=1;whiteSpace=wrap;connectable=0;strokeColor=inherit;overflow=hidden;fillColor=none;top=0;left=0;bottom=0;right=0;pointerEvents=1;sketch=1;hachureGap=4;jiggle=2;curveFitting=1;fontFamily=Architects Daughter;fontSource=https%3A%2F%2Ffonts.googleapis.com%2Fcss%3Ffamily%3DArchitects%2BDaughter;spacingTop=10;fontSize=24;verticalAlign=top;" vertex="1" parent="0VnJ7Uc4w5-QSn8PoFOb-48">
          <mxGeometry x="90" width="89" height="152" as="geometry">
            <mxRectangle width="89" height="152" as="alternateBounds" />
          </mxGeometry>
        </mxCell>
        <mxCell id="0VnJ7Uc4w5-QSn8PoFOb-51" value="6" style="shape=partialRectangle;html=1;whiteSpace=wrap;connectable=0;strokeColor=inherit;overflow=hidden;fillColor=none;top=0;left=0;bottom=0;right=0;pointerEvents=1;sketch=1;hachureGap=4;jiggle=2;curveFitting=1;fontFamily=Architects Daughter;fontSource=https%3A%2F%2Ffonts.googleapis.com%2Fcss%3Ffamily%3DArchitects%2BDaughter;spacingTop=10;fontSize=24;verticalAlign=top;" vertex="1" parent="0VnJ7Uc4w5-QSn8PoFOb-48">
          <mxGeometry x="179" width="88" height="152" as="geometry">
            <mxRectangle width="88" height="152" as="alternateBounds" />
          </mxGeometry>
        </mxCell>
        <mxCell id="0VnJ7Uc4w5-QSn8PoFOb-52" value="7" style="shape=partialRectangle;html=1;whiteSpace=wrap;connectable=0;strokeColor=inherit;overflow=hidden;fillColor=none;top=0;left=0;bottom=0;right=0;pointerEvents=1;sketch=1;hachureGap=4;jiggle=2;curveFitting=1;fontFamily=Architects Daughter;fontSource=https%3A%2F%2Ffonts.googleapis.com%2Fcss%3Ffamily%3DArchitects%2BDaughter;spacingTop=10;fontSize=24;verticalAlign=top;" vertex="1" parent="0VnJ7Uc4w5-QSn8PoFOb-48">
          <mxGeometry x="267" width="90" height="152" as="geometry">
            <mxRectangle width="90" height="152" as="alternateBounds" />
          </mxGeometry>
        </mxCell>
        <mxCell id="0VnJ7Uc4w5-QSn8PoFOb-53" value="8" style="shape=partialRectangle;html=1;whiteSpace=wrap;connectable=0;strokeColor=inherit;overflow=hidden;fillColor=none;top=0;left=0;bottom=0;right=0;pointerEvents=1;sketch=1;hachureGap=4;jiggle=2;curveFitting=1;fontFamily=Architects Daughter;fontSource=https%3A%2F%2Ffonts.googleapis.com%2Fcss%3Ffamily%3DArchitects%2BDaughter;spacingTop=10;fontSize=24;verticalAlign=top;" vertex="1" parent="0VnJ7Uc4w5-QSn8PoFOb-48">
          <mxGeometry x="357" width="90" height="152" as="geometry">
            <mxRectangle width="90" height="152" as="alternateBounds" />
          </mxGeometry>
        </mxCell>
        <mxCell id="0VnJ7Uc4w5-QSn8PoFOb-54" value="9" style="shape=partialRectangle;html=1;whiteSpace=wrap;connectable=0;strokeColor=inherit;overflow=hidden;fillColor=none;top=0;left=0;bottom=0;right=0;pointerEvents=1;sketch=1;hachureGap=4;jiggle=2;curveFitting=1;fontFamily=Architects Daughter;fontSource=https%3A%2F%2Ffonts.googleapis.com%2Fcss%3Ffamily%3DArchitects%2BDaughter;spacingTop=10;fontSize=24;verticalAlign=top;" vertex="1" parent="0VnJ7Uc4w5-QSn8PoFOb-48">
          <mxGeometry x="447" width="89" height="152" as="geometry">
            <mxRectangle width="89" height="152" as="alternateBounds" />
          </mxGeometry>
        </mxCell>
        <mxCell id="0VnJ7Uc4w5-QSn8PoFOb-55" value="10" style="shape=partialRectangle;html=1;whiteSpace=wrap;connectable=0;strokeColor=inherit;overflow=hidden;fillColor=none;top=0;left=0;bottom=0;right=0;pointerEvents=1;sketch=1;hachureGap=4;jiggle=2;curveFitting=1;fontFamily=Architects Daughter;fontSource=https%3A%2F%2Ffonts.googleapis.com%2Fcss%3Ffamily%3DArchitects%2BDaughter;spacingTop=10;fontSize=24;verticalAlign=top;" vertex="1" parent="0VnJ7Uc4w5-QSn8PoFOb-48">
          <mxGeometry x="536" width="89" height="152" as="geometry">
            <mxRectangle width="89" height="152" as="alternateBounds" />
          </mxGeometry>
        </mxCell>
        <mxCell id="0VnJ7Uc4w5-QSn8PoFOb-56" value="" style="shape=tableRow;horizontal=0;startSize=0;swimlaneHead=0;swimlaneBody=0;strokeColor=inherit;top=0;left=0;bottom=0;right=0;collapsible=0;dropTarget=0;fillColor=none;points=[[0,0.5],[1,0.5]];portConstraint=eastwest;sketch=1;hachureGap=4;jiggle=2;curveFitting=1;fontFamily=Architects Daughter;fontSource=https%3A%2F%2Ffonts.googleapis.com%2Fcss%3Ffamily%3DArchitects%2BDaughter;" vertex="1" parent="0VnJ7Uc4w5-QSn8PoFOb-39">
          <mxGeometry y="308" width="624.7694230648453" height="152" as="geometry" />
        </mxCell>
        <mxCell id="0VnJ7Uc4w5-QSn8PoFOb-57" value="11" style="shape=partialRectangle;html=1;whiteSpace=wrap;connectable=0;strokeColor=inherit;overflow=hidden;fillColor=none;top=0;left=0;bottom=0;right=0;pointerEvents=1;sketch=1;hachureGap=4;jiggle=2;curveFitting=1;fontFamily=Architects Daughter;fontSource=https%3A%2F%2Ffonts.googleapis.com%2Fcss%3Ffamily%3DArchitects%2BDaughter;spacingTop=10;fontSize=24;verticalAlign=top;" vertex="1" parent="0VnJ7Uc4w5-QSn8PoFOb-56">
          <mxGeometry width="90" height="152" as="geometry">
            <mxRectangle width="90" height="152" as="alternateBounds" />
          </mxGeometry>
        </mxCell>
        <mxCell id="0VnJ7Uc4w5-QSn8PoFOb-58" value="" style="shape=partialRectangle;html=1;whiteSpace=wrap;connectable=0;strokeColor=inherit;overflow=hidden;fillColor=none;top=0;left=0;bottom=0;right=0;pointerEvents=1;sketch=1;hachureGap=4;jiggle=2;curveFitting=1;fontFamily=Architects Daughter;fontSource=https%3A%2F%2Ffonts.googleapis.com%2Fcss%3Ffamily%3DArchitects%2BDaughter;spacingTop=10;fontSize=24;verticalAlign=top;" vertex="1" parent="0VnJ7Uc4w5-QSn8PoFOb-56">
          <mxGeometry x="90" width="89" height="152" as="geometry">
            <mxRectangle width="89" height="152" as="alternateBounds" />
          </mxGeometry>
        </mxCell>
        <mxCell id="0VnJ7Uc4w5-QSn8PoFOb-59" value="13" style="shape=partialRectangle;html=1;whiteSpace=wrap;connectable=0;strokeColor=inherit;overflow=hidden;fillColor=none;top=0;left=0;bottom=0;right=0;pointerEvents=1;sketch=1;hachureGap=4;jiggle=2;curveFitting=1;fontFamily=Architects Daughter;fontSource=https%3A%2F%2Ffonts.googleapis.com%2Fcss%3Ffamily%3DArchitects%2BDaughter;spacingTop=10;fontSize=24;verticalAlign=top;" vertex="1" parent="0VnJ7Uc4w5-QSn8PoFOb-56">
          <mxGeometry x="179" width="88" height="152" as="geometry">
            <mxRectangle width="88" height="152" as="alternateBounds" />
          </mxGeometry>
        </mxCell>
        <mxCell id="0VnJ7Uc4w5-QSn8PoFOb-60" value="14" style="shape=partialRectangle;html=1;whiteSpace=wrap;connectable=0;strokeColor=inherit;overflow=hidden;fillColor=none;top=0;left=0;bottom=0;right=0;pointerEvents=1;sketch=1;hachureGap=4;jiggle=2;curveFitting=1;fontFamily=Architects Daughter;fontSource=https%3A%2F%2Ffonts.googleapis.com%2Fcss%3Ffamily%3DArchitects%2BDaughter;spacingTop=10;fontSize=24;verticalAlign=top;" vertex="1" parent="0VnJ7Uc4w5-QSn8PoFOb-56">
          <mxGeometry x="267" width="90" height="152" as="geometry">
            <mxRectangle width="90" height="152" as="alternateBounds" />
          </mxGeometry>
        </mxCell>
        <mxCell id="0VnJ7Uc4w5-QSn8PoFOb-61" value="15" style="shape=partialRectangle;html=1;whiteSpace=wrap;connectable=0;strokeColor=inherit;overflow=hidden;fillColor=none;top=0;left=0;bottom=0;right=0;pointerEvents=1;sketch=1;hachureGap=4;jiggle=2;curveFitting=1;fontFamily=Architects Daughter;fontSource=https%3A%2F%2Ffonts.googleapis.com%2Fcss%3Ffamily%3DArchitects%2BDaughter;spacingTop=10;fontSize=24;verticalAlign=top;" vertex="1" parent="0VnJ7Uc4w5-QSn8PoFOb-56">
          <mxGeometry x="357" width="90" height="152" as="geometry">
            <mxRectangle width="90" height="152" as="alternateBounds" />
          </mxGeometry>
        </mxCell>
        <mxCell id="0VnJ7Uc4w5-QSn8PoFOb-62" value="16" style="shape=partialRectangle;html=1;whiteSpace=wrap;connectable=0;strokeColor=inherit;overflow=hidden;fillColor=none;top=0;left=0;bottom=0;right=0;pointerEvents=1;sketch=1;hachureGap=4;jiggle=2;curveFitting=1;fontFamily=Architects Daughter;fontSource=https%3A%2F%2Ffonts.googleapis.com%2Fcss%3Ffamily%3DArchitects%2BDaughter;spacingTop=10;fontSize=24;verticalAlign=top;" vertex="1" parent="0VnJ7Uc4w5-QSn8PoFOb-56">
          <mxGeometry x="447" width="89" height="152" as="geometry">
            <mxRectangle width="89" height="152" as="alternateBounds" />
          </mxGeometry>
        </mxCell>
        <mxCell id="0VnJ7Uc4w5-QSn8PoFOb-63" value="17" style="shape=partialRectangle;html=1;whiteSpace=wrap;connectable=0;strokeColor=inherit;overflow=hidden;fillColor=none;top=0;left=0;bottom=0;right=0;pointerEvents=1;sketch=1;hachureGap=4;jiggle=2;curveFitting=1;fontFamily=Architects Daughter;fontSource=https%3A%2F%2Ffonts.googleapis.com%2Fcss%3Ffamily%3DArchitects%2BDaughter;spacingTop=10;fontSize=24;verticalAlign=top;" vertex="1" parent="0VnJ7Uc4w5-QSn8PoFOb-56">
          <mxGeometry x="536" width="89" height="152" as="geometry">
            <mxRectangle width="89" height="152" as="alternateBounds" />
          </mxGeometry>
        </mxCell>
        <mxCell id="0VnJ7Uc4w5-QSn8PoFOb-64" value="" style="shape=tableRow;horizontal=0;startSize=0;swimlaneHead=0;swimlaneBody=0;strokeColor=inherit;top=0;left=0;bottom=0;right=0;collapsible=0;dropTarget=0;fillColor=none;points=[[0,0.5],[1,0.5]];portConstraint=eastwest;sketch=1;hachureGap=4;jiggle=2;curveFitting=1;fontFamily=Architects Daughter;fontSource=https%3A%2F%2Ffonts.googleapis.com%2Fcss%3Ffamily%3DArchitects%2BDaughter;" vertex="1" parent="0VnJ7Uc4w5-QSn8PoFOb-39">
          <mxGeometry y="460" width="624.7694230648453" height="156" as="geometry" />
        </mxCell>
        <mxCell id="0VnJ7Uc4w5-QSn8PoFOb-65" value="18" style="shape=partialRectangle;html=1;whiteSpace=wrap;connectable=0;strokeColor=inherit;overflow=hidden;fillColor=none;top=0;left=0;bottom=0;right=0;pointerEvents=1;sketch=1;hachureGap=4;jiggle=2;curveFitting=1;fontFamily=Architects Daughter;fontSource=https%3A%2F%2Ffonts.googleapis.com%2Fcss%3Ffamily%3DArchitects%2BDaughter;spacingTop=10;fontSize=24;verticalAlign=top;" vertex="1" parent="0VnJ7Uc4w5-QSn8PoFOb-64">
          <mxGeometry width="90" height="156" as="geometry">
            <mxRectangle width="90" height="156" as="alternateBounds" />
          </mxGeometry>
        </mxCell>
        <mxCell id="0VnJ7Uc4w5-QSn8PoFOb-66" value="18" style="shape=partialRectangle;html=1;whiteSpace=wrap;connectable=0;strokeColor=inherit;overflow=hidden;fillColor=none;top=0;left=0;bottom=0;right=0;pointerEvents=1;sketch=1;hachureGap=4;jiggle=2;curveFitting=1;fontFamily=Architects Daughter;fontSource=https%3A%2F%2Ffonts.googleapis.com%2Fcss%3Ffamily%3DArchitects%2BDaughter;spacingTop=10;fontSize=24;verticalAlign=top;" vertex="1" parent="0VnJ7Uc4w5-QSn8PoFOb-64">
          <mxGeometry x="90" width="89" height="156" as="geometry">
            <mxRectangle width="89" height="156" as="alternateBounds" />
          </mxGeometry>
        </mxCell>
        <mxCell id="0VnJ7Uc4w5-QSn8PoFOb-67" value="20" style="shape=partialRectangle;html=1;whiteSpace=wrap;connectable=0;strokeColor=inherit;overflow=hidden;fillColor=none;top=0;left=0;bottom=0;right=0;pointerEvents=1;sketch=1;hachureGap=4;jiggle=2;curveFitting=1;fontFamily=Architects Daughter;fontSource=https%3A%2F%2Ffonts.googleapis.com%2Fcss%3Ffamily%3DArchitects%2BDaughter;spacingTop=10;fontSize=24;verticalAlign=top;" vertex="1" parent="0VnJ7Uc4w5-QSn8PoFOb-64">
          <mxGeometry x="179" width="88" height="156" as="geometry">
            <mxRectangle width="88" height="156" as="alternateBounds" />
          </mxGeometry>
        </mxCell>
        <mxCell id="0VnJ7Uc4w5-QSn8PoFOb-68" value="21" style="shape=partialRectangle;html=1;whiteSpace=wrap;connectable=0;strokeColor=inherit;overflow=hidden;fillColor=none;top=0;left=0;bottom=0;right=0;pointerEvents=1;sketch=1;hachureGap=4;jiggle=2;curveFitting=1;fontFamily=Architects Daughter;fontSource=https%3A%2F%2Ffonts.googleapis.com%2Fcss%3Ffamily%3DArchitects%2BDaughter;spacingTop=10;fontSize=24;verticalAlign=top;" vertex="1" parent="0VnJ7Uc4w5-QSn8PoFOb-64">
          <mxGeometry x="267" width="90" height="156" as="geometry">
            <mxRectangle width="90" height="156" as="alternateBounds" />
          </mxGeometry>
        </mxCell>
        <mxCell id="0VnJ7Uc4w5-QSn8PoFOb-69" value="22" style="shape=partialRectangle;html=1;whiteSpace=wrap;connectable=0;strokeColor=inherit;overflow=hidden;fillColor=none;top=0;left=0;bottom=0;right=0;pointerEvents=1;sketch=1;hachureGap=4;jiggle=2;curveFitting=1;fontFamily=Architects Daughter;fontSource=https%3A%2F%2Ffonts.googleapis.com%2Fcss%3Ffamily%3DArchitects%2BDaughter;spacingTop=10;fontSize=24;verticalAlign=top;" vertex="1" parent="0VnJ7Uc4w5-QSn8PoFOb-64">
          <mxGeometry x="357" width="90" height="156" as="geometry">
            <mxRectangle width="90" height="156" as="alternateBounds" />
          </mxGeometry>
        </mxCell>
        <mxCell id="0VnJ7Uc4w5-QSn8PoFOb-70" value="23" style="shape=partialRectangle;html=1;whiteSpace=wrap;connectable=0;strokeColor=inherit;overflow=hidden;fillColor=none;top=0;left=0;bottom=0;right=0;pointerEvents=1;sketch=1;hachureGap=4;jiggle=2;curveFitting=1;fontFamily=Architects Daughter;fontSource=https%3A%2F%2Ffonts.googleapis.com%2Fcss%3Ffamily%3DArchitects%2BDaughter;spacingTop=10;fontSize=24;verticalAlign=top;" vertex="1" parent="0VnJ7Uc4w5-QSn8PoFOb-64">
          <mxGeometry x="447" width="89" height="156" as="geometry">
            <mxRectangle width="89" height="156" as="alternateBounds" />
          </mxGeometry>
        </mxCell>
        <mxCell id="0VnJ7Uc4w5-QSn8PoFOb-71" value="24" style="shape=partialRectangle;html=1;whiteSpace=wrap;connectable=0;strokeColor=inherit;overflow=hidden;fillColor=none;top=0;left=0;bottom=0;right=0;pointerEvents=1;sketch=1;hachureGap=4;jiggle=2;curveFitting=1;fontFamily=Architects Daughter;fontSource=https%3A%2F%2Ffonts.googleapis.com%2Fcss%3Ffamily%3DArchitects%2BDaughter;spacingTop=10;fontSize=24;verticalAlign=top;" vertex="1" parent="0VnJ7Uc4w5-QSn8PoFOb-64">
          <mxGeometry x="536" width="89" height="156" as="geometry">
            <mxRectangle width="89" height="156" as="alternateBounds" />
          </mxGeometry>
        </mxCell>
        <mxCell id="0VnJ7Uc4w5-QSn8PoFOb-72" value="" style="shape=tableRow;horizontal=0;startSize=0;swimlaneHead=0;swimlaneBody=0;strokeColor=inherit;top=0;left=0;bottom=0;right=0;collapsible=0;dropTarget=0;fillColor=none;points=[[0,0.5],[1,0.5]];portConstraint=eastwest;sketch=1;hachureGap=4;jiggle=2;curveFitting=1;fontFamily=Architects Daughter;fontSource=https%3A%2F%2Ffonts.googleapis.com%2Fcss%3Ffamily%3DArchitects%2BDaughter;" vertex="1" parent="0VnJ7Uc4w5-QSn8PoFOb-39">
          <mxGeometry y="616" width="624.7694230648453" height="153" as="geometry" />
        </mxCell>
        <mxCell id="0VnJ7Uc4w5-QSn8PoFOb-73" value="25" style="shape=partialRectangle;html=1;whiteSpace=wrap;connectable=0;strokeColor=inherit;overflow=hidden;fillColor=none;top=0;left=0;bottom=0;right=0;pointerEvents=1;sketch=1;hachureGap=4;jiggle=2;curveFitting=1;fontFamily=Architects Daughter;fontSource=https%3A%2F%2Ffonts.googleapis.com%2Fcss%3Ffamily%3DArchitects%2BDaughter;spacingTop=10;fontSize=24;verticalAlign=top;" vertex="1" parent="0VnJ7Uc4w5-QSn8PoFOb-72">
          <mxGeometry width="90" height="153" as="geometry">
            <mxRectangle width="90" height="153" as="alternateBounds" />
          </mxGeometry>
        </mxCell>
        <mxCell id="0VnJ7Uc4w5-QSn8PoFOb-74" value="26" style="shape=partialRectangle;html=1;whiteSpace=wrap;connectable=0;strokeColor=inherit;overflow=hidden;fillColor=none;top=0;left=0;bottom=0;right=0;pointerEvents=1;sketch=1;hachureGap=4;jiggle=2;curveFitting=1;fontFamily=Architects Daughter;fontSource=https%3A%2F%2Ffonts.googleapis.com%2Fcss%3Ffamily%3DArchitects%2BDaughter;spacingTop=10;fontSize=24;verticalAlign=top;" vertex="1" parent="0VnJ7Uc4w5-QSn8PoFOb-72">
          <mxGeometry x="90" width="89" height="153" as="geometry">
            <mxRectangle width="89" height="153" as="alternateBounds" />
          </mxGeometry>
        </mxCell>
        <mxCell id="0VnJ7Uc4w5-QSn8PoFOb-75" value="27" style="shape=partialRectangle;html=1;whiteSpace=wrap;connectable=0;strokeColor=inherit;overflow=hidden;fillColor=none;top=0;left=0;bottom=0;right=0;pointerEvents=1;sketch=1;hachureGap=4;jiggle=2;curveFitting=1;fontFamily=Architects Daughter;fontSource=https%3A%2F%2Ffonts.googleapis.com%2Fcss%3Ffamily%3DArchitects%2BDaughter;spacingTop=10;fontSize=24;verticalAlign=top;" vertex="1" parent="0VnJ7Uc4w5-QSn8PoFOb-72">
          <mxGeometry x="179" width="88" height="153" as="geometry">
            <mxRectangle width="88" height="153" as="alternateBounds" />
          </mxGeometry>
        </mxCell>
        <mxCell id="0VnJ7Uc4w5-QSn8PoFOb-76" value="28" style="shape=partialRectangle;html=1;whiteSpace=wrap;connectable=0;strokeColor=inherit;overflow=hidden;fillColor=none;top=0;left=0;bottom=0;right=0;pointerEvents=1;sketch=1;hachureGap=4;jiggle=2;curveFitting=1;fontFamily=Architects Daughter;fontSource=https%3A%2F%2Ffonts.googleapis.com%2Fcss%3Ffamily%3DArchitects%2BDaughter;spacingTop=10;fontSize=24;verticalAlign=top;" vertex="1" parent="0VnJ7Uc4w5-QSn8PoFOb-72">
          <mxGeometry x="267" width="90" height="153" as="geometry">
            <mxRectangle width="90" height="153" as="alternateBounds" />
          </mxGeometry>
        </mxCell>
        <mxCell id="0VnJ7Uc4w5-QSn8PoFOb-77" value="29" style="shape=partialRectangle;html=1;whiteSpace=wrap;connectable=0;strokeColor=inherit;overflow=hidden;fillColor=none;top=0;left=0;bottom=0;right=0;pointerEvents=1;sketch=1;hachureGap=4;jiggle=2;curveFitting=1;fontFamily=Architects Daughter;fontSource=https%3A%2F%2Ffonts.googleapis.com%2Fcss%3Ffamily%3DArchitects%2BDaughter;spacingTop=10;fontSize=24;verticalAlign=top;" vertex="1" parent="0VnJ7Uc4w5-QSn8PoFOb-72">
          <mxGeometry x="357" width="90" height="153" as="geometry">
            <mxRectangle width="90" height="153" as="alternateBounds" />
          </mxGeometry>
        </mxCell>
        <mxCell id="0VnJ7Uc4w5-QSn8PoFOb-78" value="30" style="shape=partialRectangle;html=1;whiteSpace=wrap;connectable=0;strokeColor=inherit;overflow=hidden;fillColor=none;top=0;left=0;bottom=0;right=0;pointerEvents=1;sketch=1;hachureGap=4;jiggle=2;curveFitting=1;fontFamily=Architects Daughter;fontSource=https%3A%2F%2Ffonts.googleapis.com%2Fcss%3Ffamily%3DArchitects%2BDaughter;spacingTop=10;fontSize=24;verticalAlign=top;" vertex="1" parent="0VnJ7Uc4w5-QSn8PoFOb-72">
          <mxGeometry x="447" width="89" height="153" as="geometry">
            <mxRectangle width="89" height="153" as="alternateBounds" />
          </mxGeometry>
        </mxCell>
        <mxCell id="0VnJ7Uc4w5-QSn8PoFOb-79" value="1" style="shape=partialRectangle;html=1;whiteSpace=wrap;connectable=0;strokeColor=inherit;overflow=hidden;fillColor=#CCCCCC;top=0;left=0;bottom=0;right=0;pointerEvents=1;sketch=1;hachureGap=4;jiggle=2;curveFitting=1;fontFamily=Architects Daughter;fontSource=https%3A%2F%2Ffonts.googleapis.com%2Fcss%3Ffamily%3DArchitects%2BDaughter;spacingTop=10;fontSize=24;verticalAlign=top;" vertex="1" parent="0VnJ7Uc4w5-QSn8PoFOb-72">
          <mxGeometry x="536" width="89" height="153" as="geometry">
            <mxRectangle width="89" height="153" as="alternateBounds" />
          </mxGeometry>
        </mxCell>
        <mxCell id="0VnJ7Uc4w5-QSn8PoFOb-80" value="" style="group" vertex="1" connectable="0" parent="0VnJ7Uc4w5-QSn8PoFOb-38">
          <mxGeometry x="25.60000000000013" y="2" width="582.8099999999998" height="49.16738365018876" as="geometry" />
        </mxCell>
        <mxCell id="0VnJ7Uc4w5-QSn8PoFOb-81" value="&lt;font style=&quot;font-size: 24px;&quot;&gt;Mo&lt;/font&gt;" style="text;html=1;align=center;verticalAlign=middle;resizable=0;points=[];autosize=1;strokeColor=none;fillColor=none;fontFamily=Architects Daughter;fontSource=https%3A%2F%2Ffonts.googleapis.com%2Fcss%3Ffamily%3DArchitects%2BDaughter;fontSize=24;" vertex="1" parent="0VnJ7Uc4w5-QSn8PoFOb-80">
          <mxGeometry width="60" height="40" as="geometry" />
        </mxCell>
        <mxCell id="0VnJ7Uc4w5-QSn8PoFOb-82" value="&lt;font style=&quot;font-size: 24px;&quot;&gt;Di&lt;/font&gt;" style="text;html=1;align=center;verticalAlign=middle;resizable=0;points=[];autosize=1;strokeColor=none;fillColor=none;fontFamily=Architects Daughter;fontSource=https%3A%2F%2Ffonts.googleapis.com%2Fcss%3Ffamily%3DArchitects%2BDaughter;fontSize=24;" vertex="1" parent="0VnJ7Uc4w5-QSn8PoFOb-80">
          <mxGeometry x="97.13499999999995" width="40" height="40" as="geometry" />
        </mxCell>
        <mxCell id="0VnJ7Uc4w5-QSn8PoFOb-83" value="&lt;font style=&quot;font-size: 24px;&quot;&gt;Mi&lt;/font&gt;" style="text;html=1;align=center;verticalAlign=middle;resizable=0;points=[];autosize=1;strokeColor=none;fillColor=none;fontFamily=Architects Daughter;fontSource=https%3A%2F%2Ffonts.googleapis.com%2Fcss%3Ffamily%3DArchitects%2BDaughter;fontSize=24;" vertex="1" parent="0VnJ7Uc4w5-QSn8PoFOb-80">
          <mxGeometry x="180.39357142857133" width="50" height="40" as="geometry" />
        </mxCell>
        <mxCell id="0VnJ7Uc4w5-QSn8PoFOb-84" value="&lt;font style=&quot;font-size: 24px;&quot;&gt;Do&lt;/font&gt;" style="text;html=1;align=center;verticalAlign=middle;resizable=0;points=[];autosize=1;strokeColor=none;fillColor=none;fontFamily=Architects Daughter;fontSource=https%3A%2F%2Ffonts.googleapis.com%2Fcss%3Ffamily%3DArchitects%2BDaughter;fontSize=24;" vertex="1" parent="0VnJ7Uc4w5-QSn8PoFOb-80">
          <mxGeometry x="271.05290476190464" width="50" height="40" as="geometry" />
        </mxCell>
        <mxCell id="0VnJ7Uc4w5-QSn8PoFOb-85" value="&lt;font style=&quot;font-size: 24px;&quot;&gt;Fr&lt;/font&gt;" style="text;html=1;align=center;verticalAlign=middle;resizable=0;points=[];autosize=1;strokeColor=none;fillColor=none;fontFamily=Architects Daughter;fontSource=https%3A%2F%2Ffonts.googleapis.com%2Fcss%3Ffamily%3DArchitects%2BDaughter;fontSize=24;" vertex="1" parent="0VnJ7Uc4w5-QSn8PoFOb-80">
          <mxGeometry x="359.8620476190475" width="50" height="40" as="geometry" />
        </mxCell>
        <mxCell id="0VnJ7Uc4w5-QSn8PoFOb-86" value="&lt;font style=&quot;font-size: 24px;&quot;&gt;Sa&lt;/font&gt;" style="text;html=1;align=center;verticalAlign=middle;resizable=0;points=[];autosize=1;strokeColor=none;fillColor=none;fontFamily=Architects Daughter;fontSource=https%3A%2F%2Ffonts.googleapis.com%2Fcss%3Ffamily%3DArchitects%2BDaughter;fontSize=24;" vertex="1" parent="0VnJ7Uc4w5-QSn8PoFOb-80">
          <mxGeometry x="452.3715714285712" width="50" height="40" as="geometry" />
        </mxCell>
        <mxCell id="0VnJ7Uc4w5-QSn8PoFOb-87" value="&lt;font style=&quot;font-size: 24px;&quot;&gt;So&lt;/font&gt;" style="text;html=1;align=center;verticalAlign=middle;resizable=0;points=[];autosize=1;strokeColor=none;fillColor=none;fontFamily=Architects Daughter;fontSource=https%3A%2F%2Ffonts.googleapis.com%2Fcss%3Ffamily%3DArchitects%2BDaughter;fontSize=24;" vertex="1" parent="0VnJ7Uc4w5-QSn8PoFOb-80">
          <mxGeometry x="536.5552380952378" width="50" height="40" as="geometry" />
        </mxCell>
        <mxCell id="0VnJ7Uc4w5-QSn8PoFOb-88" value="" style="group;opacity=60;" vertex="1" connectable="0" parent="0VnJ7Uc4w5-QSn8PoFOb-38">
          <mxGeometry x="469.40999999999997" y="277.04873811447305" width="89.99999999999999" height="55" as="geometry" />
        </mxCell>
        <mxCell id="0VnJ7Uc4w5-QSn8PoFOb-89" value="" style="rounded=1;whiteSpace=wrap;html=1;arcSize=5;strokeColor=#333333;gradientColor=#F7F7F7;gradientDirection=radial;fillColor=#FFFFFF;align=center;verticalAlign=middle;fontFamily=Helvetica;fontSize=12;fontColor=default;" vertex="1" parent="0VnJ7Uc4w5-QSn8PoFOb-88">
          <mxGeometry width="89.99999999999999" height="55" as="geometry" />
        </mxCell>
        <mxCell id="0VnJ7Uc4w5-QSn8PoFOb-90" value="" style="endArrow=none;html=1;rounded=0;sketch=1;curveFitting=1;jiggle=2;" edge="1" parent="0VnJ7Uc4w5-QSn8PoFOb-88">
          <mxGeometry width="50" height="50" relative="1" as="geometry">
            <mxPoint x="5.567010309278349" y="9.191111111111086" as="sourcePoint" />
            <mxPoint x="33.4020618556701" y="9.191111111111086" as="targetPoint" />
          </mxGeometry>
        </mxCell>
        <mxCell id="0VnJ7Uc4w5-QSn8PoFOb-91" value="" style="html=1;verticalLabelPosition=bottom;align=center;labelBackgroundColor=#ffffff;verticalAlign=top;strokeWidth=1;strokeColor=#1A1A1A;shadow=0;dashed=0;shape=mxgraph.ios7.icons.user;aspect=fixed;" vertex="1" parent="0VnJ7Uc4w5-QSn8PoFOb-88">
          <mxGeometry x="62.574865755640836" y="5.979161021505385" width="19.449601519511134" height="19.449601519511134" as="geometry" />
        </mxCell>
        <mxCell id="0VnJ7Uc4w5-QSn8PoFOb-92" value="" style="group" vertex="1" connectable="0" parent="0VnJ7Uc4w5-QSn8PoFOb-38">
          <mxGeometry x="559.41" y="277.04873811447305" width="89.99999999999999" height="55" as="geometry" />
        </mxCell>
        <mxCell id="0VnJ7Uc4w5-QSn8PoFOb-93" value="" style="rounded=1;whiteSpace=wrap;html=1;arcSize=5;strokeColor=#333333;gradientColor=#F7F7F7;gradientDirection=radial;fillColor=#FFFFFF;align=center;verticalAlign=middle;fontFamily=Helvetica;fontSize=12;fontColor=default;" vertex="1" parent="0VnJ7Uc4w5-QSn8PoFOb-92">
          <mxGeometry width="72.88793550530374" height="55.648584905660364" as="geometry" />
        </mxCell>
        <mxCell id="0VnJ7Uc4w5-QSn8PoFOb-94" value="" style="endArrow=none;html=1;rounded=0;sketch=1;curveFitting=1;jiggle=2;" edge="1" parent="0VnJ7Uc4w5-QSn8PoFOb-92">
          <mxGeometry width="50" height="50" relative="1" as="geometry">
            <mxPoint x="5.55846422438413" y="9.299496855345888" as="sourcePoint" />
            <mxPoint x="33.35078534630478" y="9.299496855345888" as="targetPoint" />
          </mxGeometry>
        </mxCell>
        <mxCell id="0VnJ7Uc4w5-QSn8PoFOb-95" value="" style="html=1;verticalLabelPosition=bottom;align=center;labelBackgroundColor=#ffffff;verticalAlign=top;strokeWidth=1;strokeColor=#1A1A1A;shadow=0;dashed=0;shape=mxgraph.ios7.icons.user;aspect=fixed;" vertex="1" parent="0VnJ7Uc4w5-QSn8PoFOb-92">
          <mxGeometry x="49.51104292929878" y="6.085047354306155" width="19.419743851479257" height="19.419743851479257" as="geometry" />
        </mxCell>
        <mxCell id="0VnJ7Uc4w5-QSn8PoFOb-96" value="" style="group" vertex="1" connectable="0" parent="0VnJ7Uc4w5-QSn8PoFOb-38">
          <mxGeometry x="379.41" y="277.04873811447305" width="89.99999999999999" height="55" as="geometry" />
        </mxCell>
        <mxCell id="0VnJ7Uc4w5-QSn8PoFOb-97" value="" style="rounded=1;whiteSpace=wrap;html=1;arcSize=5;strokeColor=#333333;gradientColor=#F7F7F7;gradientDirection=radial;fillColor=#FFFFFF;align=center;verticalAlign=middle;fontFamily=Helvetica;fontSize=12;fontColor=default;" vertex="1" parent="0VnJ7Uc4w5-QSn8PoFOb-96">
          <mxGeometry width="89.99999999999999" height="55" as="geometry" />
        </mxCell>
        <mxCell id="0VnJ7Uc4w5-QSn8PoFOb-98" value="" style="endArrow=none;html=1;rounded=0;sketch=1;curveFitting=1;jiggle=2;" edge="1" parent="0VnJ7Uc4w5-QSn8PoFOb-96">
          <mxGeometry width="50" height="50" relative="1" as="geometry">
            <mxPoint x="5.567010309278349" y="9.191111111111086" as="sourcePoint" />
            <mxPoint x="33.4020618556701" y="9.191111111111086" as="targetPoint" />
          </mxGeometry>
        </mxCell>
        <mxCell id="0VnJ7Uc4w5-QSn8PoFOb-99" value="" style="whiteSpace=wrap;html=1;aspect=fixed;sketch=1;curveFitting=1;jiggle=2;fillColor=none;" vertex="1" parent="0VnJ7Uc4w5-QSn8PoFOb-96">
          <mxGeometry x="6.958762886597937" y="39.13555555555553" width="6.060768011542291" height="6.060768011542291" as="geometry" />
        </mxCell>
        <mxCell id="0VnJ7Uc4w5-QSn8PoFOb-100" value="" style="html=1;verticalLabelPosition=bottom;align=center;labelBackgroundColor=#ffffff;verticalAlign=top;strokeWidth=1;strokeColor=#1A1A1A;shadow=0;dashed=0;shape=mxgraph.ios7.icons.user;aspect=fixed;" vertex="1" parent="0VnJ7Uc4w5-QSn8PoFOb-96">
          <mxGeometry x="62.574865755640836" y="5.979161021505385" width="19.449601519511134" height="19.449601519511134" as="geometry" />
        </mxCell>
        <mxCell id="0VnJ7Uc4w5-QSn8PoFOb-101" value="" style="group" vertex="1" connectable="0" parent="0VnJ7Uc4w5-QSn8PoFOb-38">
          <mxGeometry x="289.41" y="277.04873811447305" width="89.99999999999999" height="55" as="geometry" />
        </mxCell>
        <mxCell id="0VnJ7Uc4w5-QSn8PoFOb-102" value="" style="rounded=1;whiteSpace=wrap;html=1;arcSize=5;strokeColor=#333333;gradientColor=#F7F7F7;gradientDirection=radial;fillColor=#FFFFFF;align=center;verticalAlign=middle;fontFamily=Helvetica;fontSize=12;fontColor=default;" vertex="1" parent="0VnJ7Uc4w5-QSn8PoFOb-101">
          <mxGeometry width="89.99999999999999" height="55" as="geometry" />
        </mxCell>
        <mxCell id="0VnJ7Uc4w5-QSn8PoFOb-103" value="" style="endArrow=none;html=1;rounded=0;sketch=1;curveFitting=1;jiggle=2;" edge="1" parent="0VnJ7Uc4w5-QSn8PoFOb-101">
          <mxGeometry width="50" height="50" relative="1" as="geometry">
            <mxPoint x="5.567010309278349" y="9.191111111111086" as="sourcePoint" />
            <mxPoint x="33.4020618556701" y="9.191111111111086" as="targetPoint" />
          </mxGeometry>
        </mxCell>
        <mxCell id="0VnJ7Uc4w5-QSn8PoFOb-104" value="" style="whiteSpace=wrap;html=1;aspect=fixed;sketch=1;curveFitting=1;jiggle=2;fillColor=none;" vertex="1" parent="0VnJ7Uc4w5-QSn8PoFOb-101">
          <mxGeometry x="-71.04123711340205" y="39.13555555555553" width="6.060768011542291" height="6.060768011542291" as="geometry" />
        </mxCell>
        <mxCell id="0VnJ7Uc4w5-QSn8PoFOb-105" value="" style="html=1;verticalLabelPosition=bottom;align=center;labelBackgroundColor=#ffffff;verticalAlign=top;strokeWidth=1;strokeColor=#1A1A1A;shadow=0;dashed=0;shape=mxgraph.ios7.icons.user;aspect=fixed;" vertex="1" parent="0VnJ7Uc4w5-QSn8PoFOb-101">
          <mxGeometry x="62.574865755640836" y="5.979161021505385" width="19.449601519511134" height="19.449601519511134" as="geometry" />
        </mxCell>
        <mxCell id="0VnJ7Uc4w5-QSn8PoFOb-106" value="" style="group" vertex="1" connectable="0" parent="0VnJ7Uc4w5-QSn8PoFOb-38">
          <mxGeometry x="199.41000000000003" y="277.04873811447305" width="89.99999999999999" height="55" as="geometry" />
        </mxCell>
        <mxCell id="0VnJ7Uc4w5-QSn8PoFOb-107" value="" style="rounded=1;whiteSpace=wrap;html=1;arcSize=5;strokeColor=#333333;gradientColor=#F7F7F7;gradientDirection=radial;fillColor=#FFFFFF;align=center;verticalAlign=middle;fontFamily=Helvetica;fontSize=12;fontColor=default;" vertex="1" parent="0VnJ7Uc4w5-QSn8PoFOb-106">
          <mxGeometry width="89.99999999999999" height="55" as="geometry" />
        </mxCell>
        <mxCell id="0VnJ7Uc4w5-QSn8PoFOb-108" value="" style="endArrow=none;html=1;rounded=0;sketch=1;curveFitting=1;jiggle=2;" edge="1" parent="0VnJ7Uc4w5-QSn8PoFOb-106">
          <mxGeometry width="50" height="50" relative="1" as="geometry">
            <mxPoint x="5.567010309278349" y="9.191111111111086" as="sourcePoint" />
            <mxPoint x="33.4020618556701" y="9.191111111111086" as="targetPoint" />
          </mxGeometry>
        </mxCell>
        <mxCell id="0VnJ7Uc4w5-QSn8PoFOb-109" value="" style="whiteSpace=wrap;html=1;aspect=fixed;sketch=1;curveFitting=1;jiggle=2;fillColor=none;" vertex="1" parent="0VnJ7Uc4w5-QSn8PoFOb-106">
          <mxGeometry x="6.958762886597937" y="39.13555555555553" width="6.060768011542291" height="6.060768011542291" as="geometry" />
        </mxCell>
        <mxCell id="0VnJ7Uc4w5-QSn8PoFOb-110" value="" style="html=1;verticalLabelPosition=bottom;align=center;labelBackgroundColor=#ffffff;verticalAlign=top;strokeWidth=1;strokeColor=#1A1A1A;shadow=0;dashed=0;shape=mxgraph.ios7.icons.user;aspect=fixed;" vertex="1" parent="0VnJ7Uc4w5-QSn8PoFOb-106">
          <mxGeometry x="62.574865755640836" y="5.979161021505385" width="19.449601519511134" height="19.449601519511134" as="geometry" />
        </mxCell>
        <mxCell id="0VnJ7Uc4w5-QSn8PoFOb-111" value="" style="group" vertex="1" connectable="0" parent="0VnJ7Uc4w5-QSn8PoFOb-38">
          <mxGeometry x="109.41000000000005" y="277.04873811447305" width="89.99999999999999" height="55" as="geometry" />
        </mxCell>
        <mxCell id="0VnJ7Uc4w5-QSn8PoFOb-112" value="" style="rounded=1;whiteSpace=wrap;html=1;arcSize=5;strokeColor=#333333;gradientColor=#F7F7F7;gradientDirection=radial;fillColor=#FFFFFF;align=center;verticalAlign=middle;fontFamily=Helvetica;fontSize=12;fontColor=default;" vertex="1" parent="0VnJ7Uc4w5-QSn8PoFOb-111">
          <mxGeometry width="89.99999999999999" height="55" as="geometry" />
        </mxCell>
        <mxCell id="0VnJ7Uc4w5-QSn8PoFOb-113" value="" style="endArrow=none;html=1;rounded=0;sketch=1;curveFitting=1;jiggle=2;" edge="1" parent="0VnJ7Uc4w5-QSn8PoFOb-111">
          <mxGeometry width="50" height="50" relative="1" as="geometry">
            <mxPoint x="5.567010309278349" y="9.191111111111086" as="sourcePoint" />
            <mxPoint x="33.4020618556701" y="9.191111111111086" as="targetPoint" />
          </mxGeometry>
        </mxCell>
        <mxCell id="0VnJ7Uc4w5-QSn8PoFOb-114" value="" style="html=1;verticalLabelPosition=bottom;align=center;labelBackgroundColor=#ffffff;verticalAlign=top;strokeWidth=1;strokeColor=#1A1A1A;shadow=0;dashed=0;shape=mxgraph.ios7.icons.user;aspect=fixed;" vertex="1" parent="0VnJ7Uc4w5-QSn8PoFOb-111">
          <mxGeometry x="62.574865755640836" y="5.979161021505385" width="19.449601519511134" height="19.449601519511134" as="geometry" />
        </mxCell>
        <mxCell id="0VnJ7Uc4w5-QSn8PoFOb-115" value="" style="group" vertex="1" connectable="0" parent="0VnJ7Uc4w5-QSn8PoFOb-38">
          <mxGeometry x="19.41000000000008" y="277.3607531676362" width="89.99999999999999" height="55" as="geometry" />
        </mxCell>
        <mxCell id="0VnJ7Uc4w5-QSn8PoFOb-116" value="" style="rounded=1;whiteSpace=wrap;html=1;arcSize=5;strokeColor=#333333;gradientColor=#F7F7F7;gradientDirection=radial;fillColor=#FFFFFF;align=center;verticalAlign=middle;fontFamily=Helvetica;fontSize=12;fontColor=default;" vertex="1" parent="0VnJ7Uc4w5-QSn8PoFOb-115">
          <mxGeometry width="89.99999999999999" height="55" as="geometry" />
        </mxCell>
        <mxCell id="0VnJ7Uc4w5-QSn8PoFOb-117" value="" style="endArrow=none;html=1;rounded=0;sketch=1;curveFitting=1;jiggle=2;" edge="1" parent="0VnJ7Uc4w5-QSn8PoFOb-115">
          <mxGeometry width="50" height="50" relative="1" as="geometry">
            <mxPoint x="5.567010309278349" y="9.191111111111086" as="sourcePoint" />
            <mxPoint x="33.4020618556701" y="9.191111111111086" as="targetPoint" />
          </mxGeometry>
        </mxCell>
        <mxCell id="0VnJ7Uc4w5-QSn8PoFOb-118" value="" style="whiteSpace=wrap;html=1;aspect=fixed;sketch=1;curveFitting=1;jiggle=2;fillColor=none;" vertex="1" parent="0VnJ7Uc4w5-QSn8PoFOb-115">
          <mxGeometry x="6.958762886597937" y="39.13555555555553" width="6.060768011542291" height="6.060768011542291" as="geometry" />
        </mxCell>
        <mxCell id="0VnJ7Uc4w5-QSn8PoFOb-119" value="" style="html=1;verticalLabelPosition=bottom;align=center;labelBackgroundColor=#ffffff;verticalAlign=top;strokeWidth=1;strokeColor=#1A1A1A;shadow=0;dashed=0;shape=mxgraph.ios7.icons.user;aspect=fixed;" vertex="1" parent="0VnJ7Uc4w5-QSn8PoFOb-115">
          <mxGeometry x="62.574865755640836" y="5.979161021505385" width="19.449601519511134" height="19.449601519511134" as="geometry" />
        </mxCell>
        <mxCell id="0VnJ7Uc4w5-QSn8PoFOb-120" value="" style="rounded=1;whiteSpace=wrap;html=1;arcSize=5;gradientColor=#F7F7F7;gradientDirection=radial;" vertex="1" parent="0VnJ7Uc4w5-QSn8PoFOb-38">
          <mxGeometry x="0.9999999999999998" y="277.3607531676362" width="18.375427276599243" height="55" as="geometry" />
        </mxCell>
        <mxCell id="0VnJ7Uc4w5-QSn8PoFOb-121" value="" style="rounded=1;whiteSpace=wrap;html=1;arcSize=5;gradientColor=#F7F7F7;gradientDirection=radial;" vertex="1" parent="0VnJ7Uc4w5-QSn8PoFOb-38">
          <mxGeometry x="1.9999999999999996" y="432.83536147660215" width="18.375427276599243" height="55" as="geometry" />
        </mxCell>
        <mxCell id="0VnJ7Uc4w5-QSn8PoFOb-122" value="" style="group;strokeColor=#9AC7BF;fillColor=default;" vertex="1" connectable="0" parent="0VnJ7Uc4w5-QSn8PoFOb-38">
          <mxGeometry x="20.41000000000008" y="432.83536147660215" width="89.99999999999999" height="55" as="geometry" />
        </mxCell>
        <mxCell id="0VnJ7Uc4w5-QSn8PoFOb-123" value="" style="rounded=1;whiteSpace=wrap;html=1;arcSize=5;strokeColor=#333333;gradientColor=#F7F7F7;gradientDirection=radial;fillColor=#FFFFFF;strokeWidth=1;align=center;verticalAlign=middle;fontFamily=Helvetica;fontSize=12;fontColor=default;" vertex="1" parent="0VnJ7Uc4w5-QSn8PoFOb-122">
          <mxGeometry width="89.99999999999999" height="55" as="geometry" />
        </mxCell>
        <mxCell id="0VnJ7Uc4w5-QSn8PoFOb-124" value="" style="endArrow=none;html=1;rounded=0;sketch=1;curveFitting=1;jiggle=2;" edge="1" parent="0VnJ7Uc4w5-QSn8PoFOb-122">
          <mxGeometry width="50" height="50" relative="1" as="geometry">
            <mxPoint x="5.567010309278349" y="9.191111111111086" as="sourcePoint" />
            <mxPoint x="33.4020618556701" y="9.191111111111086" as="targetPoint" />
          </mxGeometry>
        </mxCell>
        <mxCell id="0VnJ7Uc4w5-QSn8PoFOb-125" value="" style="whiteSpace=wrap;html=1;aspect=fixed;sketch=1;curveFitting=1;jiggle=2;fillColor=none;" vertex="1" parent="0VnJ7Uc4w5-QSn8PoFOb-122">
          <mxGeometry x="6.958762886597937" y="39.13555555555553" width="6.060768011542291" height="6.060768011542291" as="geometry" />
        </mxCell>
        <mxCell id="0VnJ7Uc4w5-QSn8PoFOb-126" value="" style="html=1;verticalLabelPosition=bottom;align=center;labelBackgroundColor=#ffffff;verticalAlign=top;strokeWidth=1;strokeColor=#1A1A1A;shadow=0;dashed=0;shape=mxgraph.ios7.icons.user;aspect=fixed;" vertex="1" parent="0VnJ7Uc4w5-QSn8PoFOb-122">
          <mxGeometry x="62.574865755640836" y="5.979161021505385" width="19.449601519511134" height="19.449601519511134" as="geometry" />
        </mxCell>
        <mxCell id="0VnJ7Uc4w5-QSn8PoFOb-127" value="" style="group" vertex="1" connectable="0" parent="0VnJ7Uc4w5-QSn8PoFOb-38">
          <mxGeometry x="110.41000000000005" y="432.5233464234389" width="89.99999999999999" height="55" as="geometry" />
        </mxCell>
        <mxCell id="0VnJ7Uc4w5-QSn8PoFOb-128" value="" style="rounded=1;whiteSpace=wrap;html=1;arcSize=5;strokeColor=#333333;gradientColor=#F7F7F7;gradientDirection=radial;fillColor=#FFFFFF;align=center;verticalAlign=middle;fontFamily=Helvetica;fontSize=12;fontColor=default;" vertex="1" parent="0VnJ7Uc4w5-QSn8PoFOb-127">
          <mxGeometry width="89.99999999999999" height="55" as="geometry" />
        </mxCell>
        <mxCell id="0VnJ7Uc4w5-QSn8PoFOb-129" value="" style="endArrow=none;html=1;rounded=0;sketch=1;curveFitting=1;jiggle=2;" edge="1" parent="0VnJ7Uc4w5-QSn8PoFOb-127">
          <mxGeometry width="50" height="50" relative="1" as="geometry">
            <mxPoint x="5.567010309278349" y="9.191111111111086" as="sourcePoint" />
            <mxPoint x="33.4020618556701" y="9.191111111111086" as="targetPoint" />
          </mxGeometry>
        </mxCell>
        <mxCell id="0VnJ7Uc4w5-QSn8PoFOb-130" value="" style="html=1;verticalLabelPosition=bottom;align=center;labelBackgroundColor=#ffffff;verticalAlign=top;strokeWidth=1;strokeColor=#1A1A1A;shadow=0;dashed=0;shape=mxgraph.ios7.icons.user;aspect=fixed;" vertex="1" parent="0VnJ7Uc4w5-QSn8PoFOb-127">
          <mxGeometry x="62.574865755640836" y="5.979161021505385" width="19.449601519511134" height="19.449601519511134" as="geometry" />
        </mxCell>
        <mxCell id="0VnJ7Uc4w5-QSn8PoFOb-131" value="" style="group" vertex="1" connectable="0" parent="0VnJ7Uc4w5-QSn8PoFOb-38">
          <mxGeometry x="200.41000000000003" y="432.5233464234389" width="89.99999999999999" height="55" as="geometry" />
        </mxCell>
        <mxCell id="0VnJ7Uc4w5-QSn8PoFOb-132" value="" style="rounded=1;whiteSpace=wrap;html=1;arcSize=5;strokeColor=#333333;gradientColor=#F7F7F7;gradientDirection=radial;fillColor=#FFFFFF;align=center;verticalAlign=middle;fontFamily=Helvetica;fontSize=12;fontColor=default;" vertex="1" parent="0VnJ7Uc4w5-QSn8PoFOb-131">
          <mxGeometry width="89.99999999999999" height="55" as="geometry" />
        </mxCell>
        <mxCell id="0VnJ7Uc4w5-QSn8PoFOb-133" value="" style="endArrow=none;html=1;rounded=0;sketch=1;curveFitting=1;jiggle=2;" edge="1" parent="0VnJ7Uc4w5-QSn8PoFOb-131">
          <mxGeometry width="50" height="50" relative="1" as="geometry">
            <mxPoint x="5.567010309278349" y="9.191111111111086" as="sourcePoint" />
            <mxPoint x="33.4020618556701" y="9.191111111111086" as="targetPoint" />
          </mxGeometry>
        </mxCell>
        <mxCell id="0VnJ7Uc4w5-QSn8PoFOb-134" value="" style="whiteSpace=wrap;html=1;aspect=fixed;sketch=1;curveFitting=1;jiggle=2;fillColor=none;" vertex="1" parent="0VnJ7Uc4w5-QSn8PoFOb-131">
          <mxGeometry x="6.958762886597937" y="39.13555555555553" width="6.060768011542291" height="6.060768011542291" as="geometry" />
        </mxCell>
        <mxCell id="0VnJ7Uc4w5-QSn8PoFOb-135" value="" style="html=1;verticalLabelPosition=bottom;align=center;labelBackgroundColor=#ffffff;verticalAlign=top;strokeWidth=1;strokeColor=#1A1A1A;shadow=0;dashed=0;shape=mxgraph.ios7.icons.user;aspect=fixed;" vertex="1" parent="0VnJ7Uc4w5-QSn8PoFOb-131">
          <mxGeometry x="62.574865755640836" y="5.979161021505385" width="19.449601519511134" height="19.449601519511134" as="geometry" />
        </mxCell>
        <mxCell id="0VnJ7Uc4w5-QSn8PoFOb-136" value="" style="group" vertex="1" connectable="0" parent="0VnJ7Uc4w5-QSn8PoFOb-38">
          <mxGeometry x="290.41" y="432.5233464234389" width="89.99999999999999" height="55" as="geometry" />
        </mxCell>
        <mxCell id="0VnJ7Uc4w5-QSn8PoFOb-137" value="" style="rounded=1;whiteSpace=wrap;html=1;arcSize=5;strokeColor=#333333;gradientColor=#F7F7F7;gradientDirection=radial;fillColor=#FFFFFF;align=center;verticalAlign=middle;fontFamily=Helvetica;fontSize=12;fontColor=default;" vertex="1" parent="0VnJ7Uc4w5-QSn8PoFOb-136">
          <mxGeometry width="89.99999999999999" height="55" as="geometry" />
        </mxCell>
        <mxCell id="0VnJ7Uc4w5-QSn8PoFOb-138" value="" style="endArrow=none;html=1;rounded=0;sketch=1;curveFitting=1;jiggle=2;" edge="1" parent="0VnJ7Uc4w5-QSn8PoFOb-136">
          <mxGeometry width="50" height="50" relative="1" as="geometry">
            <mxPoint x="5.567010309278349" y="9.191111111111086" as="sourcePoint" />
            <mxPoint x="33.4020618556701" y="9.191111111111086" as="targetPoint" />
          </mxGeometry>
        </mxCell>
        <mxCell id="0VnJ7Uc4w5-QSn8PoFOb-139" value="" style="html=1;verticalLabelPosition=bottom;align=center;labelBackgroundColor=#ffffff;verticalAlign=top;strokeWidth=1;strokeColor=#1A1A1A;shadow=0;dashed=0;shape=mxgraph.ios7.icons.user;aspect=fixed;" vertex="1" parent="0VnJ7Uc4w5-QSn8PoFOb-136">
          <mxGeometry x="62.574865755640836" y="5.979161021505385" width="19.449601519511134" height="19.449601519511134" as="geometry" />
        </mxCell>
        <mxCell id="0VnJ7Uc4w5-QSn8PoFOb-140" value="" style="group" vertex="1" connectable="0" parent="0VnJ7Uc4w5-QSn8PoFOb-38">
          <mxGeometry x="380.41" y="432.5233464234389" width="89.99999999999999" height="55" as="geometry" />
        </mxCell>
        <mxCell id="0VnJ7Uc4w5-QSn8PoFOb-141" value="" style="rounded=1;whiteSpace=wrap;html=1;arcSize=5;strokeColor=#333333;gradientColor=#F7F7F7;gradientDirection=radial;fillColor=#FFFFFF;align=center;verticalAlign=middle;fontFamily=Helvetica;fontSize=12;fontColor=default;" vertex="1" parent="0VnJ7Uc4w5-QSn8PoFOb-140">
          <mxGeometry width="89.99999999999999" height="55" as="geometry" />
        </mxCell>
        <mxCell id="0VnJ7Uc4w5-QSn8PoFOb-142" value="" style="endArrow=none;html=1;rounded=0;sketch=1;curveFitting=1;jiggle=2;" edge="1" parent="0VnJ7Uc4w5-QSn8PoFOb-140">
          <mxGeometry width="50" height="50" relative="1" as="geometry">
            <mxPoint x="5.567010309278349" y="9.191111111111086" as="sourcePoint" />
            <mxPoint x="33.4020618556701" y="9.191111111111086" as="targetPoint" />
          </mxGeometry>
        </mxCell>
        <mxCell id="0VnJ7Uc4w5-QSn8PoFOb-143" value="" style="whiteSpace=wrap;html=1;aspect=fixed;sketch=1;curveFitting=1;jiggle=2;fillColor=none;" vertex="1" parent="0VnJ7Uc4w5-QSn8PoFOb-140">
          <mxGeometry x="6.958762886597937" y="39.13555555555553" width="6.060768011542291" height="6.060768011542291" as="geometry" />
        </mxCell>
        <mxCell id="0VnJ7Uc4w5-QSn8PoFOb-144" value="" style="html=1;verticalLabelPosition=bottom;align=center;labelBackgroundColor=#ffffff;verticalAlign=top;strokeWidth=1;strokeColor=#1A1A1A;shadow=0;dashed=0;shape=mxgraph.ios7.icons.user;aspect=fixed;" vertex="1" parent="0VnJ7Uc4w5-QSn8PoFOb-140">
          <mxGeometry x="61.574865755640836" y="5.979161021505385" width="19.449601519511134" height="19.449601519511134" as="geometry" />
        </mxCell>
        <mxCell id="0VnJ7Uc4w5-QSn8PoFOb-145" value="" style="group;opacity=60;" vertex="1" connectable="0" parent="0VnJ7Uc4w5-QSn8PoFOb-38">
          <mxGeometry x="470.40999999999997" y="432.5233464234389" width="89.99999999999999" height="55" as="geometry" />
        </mxCell>
        <mxCell id="0VnJ7Uc4w5-QSn8PoFOb-146" value="" style="rounded=1;whiteSpace=wrap;html=1;arcSize=5;strokeColor=#333333;gradientColor=#F7F7F7;gradientDirection=radial;fillColor=#FFFFFF;align=center;verticalAlign=middle;fontFamily=Helvetica;fontSize=12;fontColor=default;" vertex="1" parent="0VnJ7Uc4w5-QSn8PoFOb-145">
          <mxGeometry width="89.99999999999999" height="55" as="geometry" />
        </mxCell>
        <mxCell id="0VnJ7Uc4w5-QSn8PoFOb-147" value="" style="endArrow=none;html=1;rounded=0;sketch=1;curveFitting=1;jiggle=2;" edge="1" parent="0VnJ7Uc4w5-QSn8PoFOb-145">
          <mxGeometry width="50" height="50" relative="1" as="geometry">
            <mxPoint x="5.567010309278349" y="9.191111111111086" as="sourcePoint" />
            <mxPoint x="33.4020618556701" y="9.191111111111086" as="targetPoint" />
          </mxGeometry>
        </mxCell>
        <mxCell id="0VnJ7Uc4w5-QSn8PoFOb-148" value="" style="html=1;verticalLabelPosition=bottom;align=center;labelBackgroundColor=#ffffff;verticalAlign=top;strokeWidth=1;strokeColor=#1A1A1A;shadow=0;dashed=0;shape=mxgraph.ios7.icons.user;aspect=fixed;" vertex="1" parent="0VnJ7Uc4w5-QSn8PoFOb-145">
          <mxGeometry x="62.574865755640836" y="5.979161021505385" width="19.449601519511134" height="19.449601519511134" as="geometry" />
        </mxCell>
        <mxCell id="0VnJ7Uc4w5-QSn8PoFOb-149" value="" style="group" vertex="1" connectable="0" parent="0VnJ7Uc4w5-QSn8PoFOb-38">
          <mxGeometry x="20.41000000000008" y="588.309969785568" width="89.99999999999999" height="55" as="geometry" />
        </mxCell>
        <mxCell id="0VnJ7Uc4w5-QSn8PoFOb-150" value="" style="rounded=1;whiteSpace=wrap;html=1;arcSize=5;strokeColor=#333333;gradientColor=#F7F7F7;gradientDirection=radial;fillColor=#FFFFFF;align=center;verticalAlign=middle;fontFamily=Helvetica;fontSize=12;fontColor=default;" vertex="1" parent="0VnJ7Uc4w5-QSn8PoFOb-149">
          <mxGeometry width="89.99999999999999" height="55" as="geometry" />
        </mxCell>
        <mxCell id="0VnJ7Uc4w5-QSn8PoFOb-151" value="" style="endArrow=none;html=1;rounded=0;sketch=1;curveFitting=1;jiggle=2;" edge="1" parent="0VnJ7Uc4w5-QSn8PoFOb-149">
          <mxGeometry width="50" height="50" relative="1" as="geometry">
            <mxPoint x="5.567010309278349" y="9.191111111111086" as="sourcePoint" />
            <mxPoint x="33.4020618556701" y="9.191111111111086" as="targetPoint" />
          </mxGeometry>
        </mxCell>
        <mxCell id="0VnJ7Uc4w5-QSn8PoFOb-152" value="" style="whiteSpace=wrap;html=1;aspect=fixed;sketch=1;curveFitting=1;jiggle=2;fillColor=none;" vertex="1" parent="0VnJ7Uc4w5-QSn8PoFOb-149">
          <mxGeometry x="6.958762886597937" y="39.13555555555553" width="6.060768011542291" height="6.060768011542291" as="geometry" />
        </mxCell>
        <mxCell id="0VnJ7Uc4w5-QSn8PoFOb-153" value="" style="html=1;verticalLabelPosition=bottom;align=center;labelBackgroundColor=#ffffff;verticalAlign=top;strokeWidth=1;strokeColor=#1A1A1A;shadow=0;dashed=0;shape=mxgraph.ios7.icons.user;aspect=fixed;" vertex="1" parent="0VnJ7Uc4w5-QSn8PoFOb-149">
          <mxGeometry x="62.574865755640836" y="5.979161021505385" width="19.449601519511134" height="19.449601519511134" as="geometry" />
        </mxCell>
        <mxCell id="0VnJ7Uc4w5-QSn8PoFOb-154" value="" style="rounded=1;whiteSpace=wrap;html=1;arcSize=5;gradientColor=#F7F7F7;gradientDirection=radial;" vertex="1" parent="0VnJ7Uc4w5-QSn8PoFOb-38">
          <mxGeometry x="1.9999999999999996" y="588.309969785568" width="18.375427276599243" height="55" as="geometry" />
        </mxCell>
        <mxCell id="0VnJ7Uc4w5-QSn8PoFOb-155" value="" style="group" vertex="1" connectable="0" parent="0VnJ7Uc4w5-QSn8PoFOb-38">
          <mxGeometry x="110.41000000000005" y="587.9979547324049" width="89.99999999999999" height="55" as="geometry" />
        </mxCell>
        <mxCell id="0VnJ7Uc4w5-QSn8PoFOb-156" value="" style="rounded=1;whiteSpace=wrap;html=1;arcSize=5;strokeColor=#333333;gradientColor=#F7F7F7;gradientDirection=radial;fillColor=#FFFFFF;align=center;verticalAlign=middle;fontFamily=Helvetica;fontSize=12;fontColor=default;" vertex="1" parent="0VnJ7Uc4w5-QSn8PoFOb-155">
          <mxGeometry width="89.99999999999999" height="55" as="geometry" />
        </mxCell>
        <mxCell id="0VnJ7Uc4w5-QSn8PoFOb-157" value="" style="endArrow=none;html=1;rounded=0;sketch=1;curveFitting=1;jiggle=2;" edge="1" parent="0VnJ7Uc4w5-QSn8PoFOb-155">
          <mxGeometry width="50" height="50" relative="1" as="geometry">
            <mxPoint x="5.567010309278349" y="9.191111111111086" as="sourcePoint" />
            <mxPoint x="33.4020618556701" y="9.191111111111086" as="targetPoint" />
          </mxGeometry>
        </mxCell>
        <mxCell id="0VnJ7Uc4w5-QSn8PoFOb-158" value="" style="html=1;verticalLabelPosition=bottom;align=center;labelBackgroundColor=#ffffff;verticalAlign=top;strokeWidth=1;strokeColor=#1A1A1A;shadow=0;dashed=0;shape=mxgraph.ios7.icons.user;aspect=fixed;" vertex="1" parent="0VnJ7Uc4w5-QSn8PoFOb-155">
          <mxGeometry x="62.574865755640836" y="5.979161021505385" width="19.449601519511134" height="19.449601519511134" as="geometry" />
        </mxCell>
        <mxCell id="0VnJ7Uc4w5-QSn8PoFOb-159" value="" style="group" vertex="1" connectable="0" parent="0VnJ7Uc4w5-QSn8PoFOb-38">
          <mxGeometry x="200.41000000000003" y="587.9979547324049" width="89.99999999999999" height="55" as="geometry" />
        </mxCell>
        <mxCell id="0VnJ7Uc4w5-QSn8PoFOb-160" value="" style="rounded=1;whiteSpace=wrap;html=1;arcSize=5;strokeColor=#333333;gradientColor=#F7F7F7;gradientDirection=radial;fillColor=#FFFFFF;align=center;verticalAlign=middle;fontFamily=Helvetica;fontSize=12;fontColor=default;" vertex="1" parent="0VnJ7Uc4w5-QSn8PoFOb-159">
          <mxGeometry width="89.99999999999999" height="55" as="geometry" />
        </mxCell>
        <mxCell id="0VnJ7Uc4w5-QSn8PoFOb-161" value="" style="endArrow=none;html=1;rounded=0;sketch=1;curveFitting=1;jiggle=2;" edge="1" parent="0VnJ7Uc4w5-QSn8PoFOb-159">
          <mxGeometry width="50" height="50" relative="1" as="geometry">
            <mxPoint x="5.567010309278349" y="9.191111111111086" as="sourcePoint" />
            <mxPoint x="33.4020618556701" y="9.191111111111086" as="targetPoint" />
          </mxGeometry>
        </mxCell>
        <mxCell id="0VnJ7Uc4w5-QSn8PoFOb-162" value="" style="whiteSpace=wrap;html=1;aspect=fixed;sketch=1;curveFitting=1;jiggle=2;fillColor=none;" vertex="1" parent="0VnJ7Uc4w5-QSn8PoFOb-159">
          <mxGeometry x="6.958762886597937" y="39.13555555555553" width="6.060768011542291" height="6.060768011542291" as="geometry" />
        </mxCell>
        <mxCell id="0VnJ7Uc4w5-QSn8PoFOb-163" value="" style="html=1;verticalLabelPosition=bottom;align=center;labelBackgroundColor=#ffffff;verticalAlign=top;strokeWidth=1;strokeColor=#1A1A1A;shadow=0;dashed=0;shape=mxgraph.ios7.icons.user;aspect=fixed;" vertex="1" parent="0VnJ7Uc4w5-QSn8PoFOb-159">
          <mxGeometry x="62.574865755640836" y="5.979161021505385" width="19.449601519511134" height="19.449601519511134" as="geometry" />
        </mxCell>
        <mxCell id="0VnJ7Uc4w5-QSn8PoFOb-164" value="" style="group" vertex="1" connectable="0" parent="0VnJ7Uc4w5-QSn8PoFOb-38">
          <mxGeometry x="290.41" y="587.9979547324049" width="89.99999999999999" height="55" as="geometry" />
        </mxCell>
        <mxCell id="0VnJ7Uc4w5-QSn8PoFOb-165" value="" style="rounded=1;whiteSpace=wrap;html=1;arcSize=5;strokeColor=#333333;gradientColor=#F7F7F7;gradientDirection=radial;fillColor=#FFFFFF;align=center;verticalAlign=middle;fontFamily=Helvetica;fontSize=12;fontColor=default;" vertex="1" parent="0VnJ7Uc4w5-QSn8PoFOb-164">
          <mxGeometry width="89.99999999999999" height="55" as="geometry" />
        </mxCell>
        <mxCell id="0VnJ7Uc4w5-QSn8PoFOb-166" value="" style="endArrow=none;html=1;rounded=0;sketch=1;curveFitting=1;jiggle=2;" edge="1" parent="0VnJ7Uc4w5-QSn8PoFOb-164">
          <mxGeometry width="50" height="50" relative="1" as="geometry">
            <mxPoint x="5.567010309278349" y="9.191111111111086" as="sourcePoint" />
            <mxPoint x="33.4020618556701" y="9.191111111111086" as="targetPoint" />
          </mxGeometry>
        </mxCell>
        <mxCell id="0VnJ7Uc4w5-QSn8PoFOb-167" value="" style="html=1;verticalLabelPosition=bottom;align=center;labelBackgroundColor=#ffffff;verticalAlign=top;strokeWidth=1;strokeColor=#1A1A1A;shadow=0;dashed=0;shape=mxgraph.ios7.icons.user;aspect=fixed;" vertex="1" parent="0VnJ7Uc4w5-QSn8PoFOb-164">
          <mxGeometry x="62.574865755640836" y="5.979161021505385" width="19.449601519511134" height="19.449601519511134" as="geometry" />
        </mxCell>
        <mxCell id="0VnJ7Uc4w5-QSn8PoFOb-168" value="" style="group" vertex="1" connectable="0" parent="0VnJ7Uc4w5-QSn8PoFOb-38">
          <mxGeometry x="380.41" y="587.9979547324049" width="89.99999999999999" height="55" as="geometry" />
        </mxCell>
        <mxCell id="0VnJ7Uc4w5-QSn8PoFOb-169" value="" style="rounded=1;whiteSpace=wrap;html=1;arcSize=5;strokeColor=#333333;gradientColor=#F7F7F7;gradientDirection=radial;fillColor=#FFFFFF;align=center;verticalAlign=middle;fontFamily=Helvetica;fontSize=12;fontColor=default;" vertex="1" parent="0VnJ7Uc4w5-QSn8PoFOb-168">
          <mxGeometry width="89.99999999999999" height="55" as="geometry" />
        </mxCell>
        <mxCell id="0VnJ7Uc4w5-QSn8PoFOb-170" value="" style="endArrow=none;html=1;rounded=0;sketch=1;curveFitting=1;jiggle=2;" edge="1" parent="0VnJ7Uc4w5-QSn8PoFOb-168">
          <mxGeometry width="50" height="50" relative="1" as="geometry">
            <mxPoint x="5.567010309278349" y="9.191111111111086" as="sourcePoint" />
            <mxPoint x="33.4020618556701" y="9.191111111111086" as="targetPoint" />
          </mxGeometry>
        </mxCell>
        <mxCell id="0VnJ7Uc4w5-QSn8PoFOb-171" value="" style="whiteSpace=wrap;html=1;aspect=fixed;sketch=1;curveFitting=1;jiggle=2;fillColor=none;" vertex="1" parent="0VnJ7Uc4w5-QSn8PoFOb-168">
          <mxGeometry x="6.958762886597937" y="39.13555555555553" width="6.060768011542291" height="6.060768011542291" as="geometry" />
        </mxCell>
        <mxCell id="0VnJ7Uc4w5-QSn8PoFOb-172" value="" style="html=1;verticalLabelPosition=bottom;align=center;labelBackgroundColor=#ffffff;verticalAlign=top;strokeWidth=1;strokeColor=#1A1A1A;shadow=0;dashed=0;shape=mxgraph.ios7.icons.user;aspect=fixed;" vertex="1" parent="0VnJ7Uc4w5-QSn8PoFOb-168">
          <mxGeometry x="62.574865755640836" y="5.979161021505385" width="19.449601519511134" height="19.449601519511134" as="geometry" />
        </mxCell>
        <mxCell id="0VnJ7Uc4w5-QSn8PoFOb-173" value="" style="group;opacity=60;" vertex="1" connectable="0" parent="0VnJ7Uc4w5-QSn8PoFOb-38">
          <mxGeometry x="470.40999999999997" y="587.9979547324049" width="89.99999999999999" height="55" as="geometry" />
        </mxCell>
        <mxCell id="0VnJ7Uc4w5-QSn8PoFOb-174" value="" style="rounded=1;whiteSpace=wrap;html=1;arcSize=5;strokeColor=#333333;gradientColor=#F7F7F7;gradientDirection=radial;fillColor=#FFFFFF;align=center;verticalAlign=middle;fontFamily=Helvetica;fontSize=12;fontColor=default;" vertex="1" parent="0VnJ7Uc4w5-QSn8PoFOb-173">
          <mxGeometry width="89.99999999999999" height="55" as="geometry" />
        </mxCell>
        <mxCell id="0VnJ7Uc4w5-QSn8PoFOb-175" value="" style="endArrow=none;html=1;rounded=0;sketch=1;curveFitting=1;jiggle=2;" edge="1" parent="0VnJ7Uc4w5-QSn8PoFOb-173">
          <mxGeometry width="50" height="50" relative="1" as="geometry">
            <mxPoint x="5.567010309278349" y="9.191111111111086" as="sourcePoint" />
            <mxPoint x="33.4020618556701" y="9.191111111111086" as="targetPoint" />
          </mxGeometry>
        </mxCell>
        <mxCell id="0VnJ7Uc4w5-QSn8PoFOb-176" value="" style="html=1;verticalLabelPosition=bottom;align=center;labelBackgroundColor=#ffffff;verticalAlign=top;strokeWidth=1;strokeColor=#1A1A1A;shadow=0;dashed=0;shape=mxgraph.ios7.icons.user;aspect=fixed;" vertex="1" parent="0VnJ7Uc4w5-QSn8PoFOb-173">
          <mxGeometry x="62.574865755640836" y="5.979161021505385" width="19.449601519511134" height="19.449601519511134" as="geometry" />
        </mxCell>
        <mxCell id="0VnJ7Uc4w5-QSn8PoFOb-177" value="" style="group" vertex="1" connectable="0" parent="0VnJ7Uc4w5-QSn8PoFOb-38">
          <mxGeometry x="560.41" y="587.9979547324049" width="89.99999999999999" height="55" as="geometry" />
        </mxCell>
        <mxCell id="0VnJ7Uc4w5-QSn8PoFOb-178" value="" style="rounded=1;whiteSpace=wrap;html=1;arcSize=5;strokeColor=#333333;gradientColor=#F7F7F7;gradientDirection=radial;fillColor=#FFFFFF;align=center;verticalAlign=middle;fontFamily=Helvetica;fontSize=12;fontColor=default;" vertex="1" parent="0VnJ7Uc4w5-QSn8PoFOb-177">
          <mxGeometry width="72.88793550530374" height="55.648584905660364" as="geometry" />
        </mxCell>
        <mxCell id="0VnJ7Uc4w5-QSn8PoFOb-179" value="" style="endArrow=none;html=1;rounded=0;sketch=1;curveFitting=1;jiggle=2;" edge="1" parent="0VnJ7Uc4w5-QSn8PoFOb-177">
          <mxGeometry width="50" height="50" relative="1" as="geometry">
            <mxPoint x="5.55846422438413" y="9.299496855345888" as="sourcePoint" />
            <mxPoint x="33.35078534630478" y="9.299496855345888" as="targetPoint" />
          </mxGeometry>
        </mxCell>
        <mxCell id="0VnJ7Uc4w5-QSn8PoFOb-180" value="" style="html=1;verticalLabelPosition=bottom;align=center;labelBackgroundColor=#ffffff;verticalAlign=top;strokeWidth=1;strokeColor=#1A1A1A;shadow=0;dashed=0;shape=mxgraph.ios7.icons.user;aspect=fixed;" vertex="1" parent="0VnJ7Uc4w5-QSn8PoFOb-177">
          <mxGeometry x="49.51104292929878" y="6.085047354306155" width="19.419743851479257" height="19.419743851479257" as="geometry" />
        </mxCell>
        <mxCell id="0VnJ7Uc4w5-QSn8PoFOb-181" value="" style="group" vertex="1" connectable="0" parent="0VnJ7Uc4w5-QSn8PoFOb-38">
          <mxGeometry x="21.41000000000008" y="737.9396680077309" width="89.99999999999999" height="55" as="geometry" />
        </mxCell>
        <mxCell id="0VnJ7Uc4w5-QSn8PoFOb-182" value="" style="rounded=1;whiteSpace=wrap;html=1;arcSize=5;strokeColor=#333333;gradientColor=#F7F7F7;gradientDirection=radial;fillColor=#FFFFFF;align=center;verticalAlign=middle;fontFamily=Helvetica;fontSize=12;fontColor=default;" vertex="1" parent="0VnJ7Uc4w5-QSn8PoFOb-181">
          <mxGeometry width="89.99999999999999" height="55" as="geometry" />
        </mxCell>
        <mxCell id="0VnJ7Uc4w5-QSn8PoFOb-183" value="" style="endArrow=none;html=1;rounded=0;sketch=1;curveFitting=1;jiggle=2;" edge="1" parent="0VnJ7Uc4w5-QSn8PoFOb-181">
          <mxGeometry width="50" height="50" relative="1" as="geometry">
            <mxPoint x="5.567010309278349" y="9.191111111111086" as="sourcePoint" />
            <mxPoint x="33.4020618556701" y="9.191111111111086" as="targetPoint" />
          </mxGeometry>
        </mxCell>
        <mxCell id="0VnJ7Uc4w5-QSn8PoFOb-184" value="" style="html=1;verticalLabelPosition=bottom;align=center;labelBackgroundColor=#ffffff;verticalAlign=top;strokeWidth=1;strokeColor=#1A1A1A;shadow=0;dashed=0;shape=mxgraph.ios7.icons.user;aspect=fixed;" vertex="1" parent="0VnJ7Uc4w5-QSn8PoFOb-181">
          <mxGeometry x="62.574865755640836" y="5.979161021505385" width="19.449601519511134" height="19.449601519511134" as="geometry" />
        </mxCell>
        <mxCell id="0VnJ7Uc4w5-QSn8PoFOb-185" value="" style="rounded=1;whiteSpace=wrap;html=1;arcSize=5;gradientColor=#F7F7F7;gradientDirection=radial;" vertex="1" parent="0VnJ7Uc4w5-QSn8PoFOb-38">
          <mxGeometry x="2.999999999999999" y="737.9396680077309" width="18.375427276599243" height="55" as="geometry" />
        </mxCell>
        <mxCell id="0VnJ7Uc4w5-QSn8PoFOb-186" value="" style="group" vertex="1" connectable="0" parent="0VnJ7Uc4w5-QSn8PoFOb-38">
          <mxGeometry x="111.41000000000005" y="737.6276529545673" width="89.99999999999999" height="55" as="geometry" />
        </mxCell>
        <mxCell id="0VnJ7Uc4w5-QSn8PoFOb-187" value="" style="rounded=1;whiteSpace=wrap;html=1;arcSize=5;strokeColor=#333333;gradientColor=#F7F7F7;gradientDirection=radial;fillColor=#FFFFFF;align=center;verticalAlign=middle;fontFamily=Helvetica;fontSize=12;fontColor=default;" vertex="1" parent="0VnJ7Uc4w5-QSn8PoFOb-186">
          <mxGeometry width="89.99999999999999" height="55" as="geometry" />
        </mxCell>
        <mxCell id="0VnJ7Uc4w5-QSn8PoFOb-188" value="" style="endArrow=none;html=1;rounded=0;sketch=1;curveFitting=1;jiggle=2;" edge="1" parent="0VnJ7Uc4w5-QSn8PoFOb-186">
          <mxGeometry width="50" height="50" relative="1" as="geometry">
            <mxPoint x="5.567010309278349" y="9.191111111111086" as="sourcePoint" />
            <mxPoint x="33.4020618556701" y="9.191111111111086" as="targetPoint" />
          </mxGeometry>
        </mxCell>
        <mxCell id="0VnJ7Uc4w5-QSn8PoFOb-189" value="" style="html=1;verticalLabelPosition=bottom;align=center;labelBackgroundColor=#ffffff;verticalAlign=top;strokeWidth=1;strokeColor=#1A1A1A;shadow=0;dashed=0;shape=mxgraph.ios7.icons.user;aspect=fixed;" vertex="1" parent="0VnJ7Uc4w5-QSn8PoFOb-186">
          <mxGeometry x="62.574865755640836" y="5.979161021505385" width="19.449601519511134" height="19.449601519511134" as="geometry" />
        </mxCell>
        <mxCell id="0VnJ7Uc4w5-QSn8PoFOb-190" value="" style="group" vertex="1" connectable="0" parent="0VnJ7Uc4w5-QSn8PoFOb-38">
          <mxGeometry x="201.41000000000003" y="737.6276529545673" width="89.99999999999999" height="55" as="geometry" />
        </mxCell>
        <mxCell id="0VnJ7Uc4w5-QSn8PoFOb-191" value="" style="rounded=1;whiteSpace=wrap;html=1;arcSize=5;strokeColor=#333333;gradientColor=#F7F7F7;gradientDirection=radial;fillColor=#FFFFFF;align=center;verticalAlign=middle;fontFamily=Helvetica;fontSize=12;fontColor=default;" vertex="1" parent="0VnJ7Uc4w5-QSn8PoFOb-190">
          <mxGeometry width="89.99999999999999" height="55" as="geometry" />
        </mxCell>
        <mxCell id="0VnJ7Uc4w5-QSn8PoFOb-192" value="" style="endArrow=none;html=1;rounded=0;sketch=1;curveFitting=1;jiggle=2;" edge="1" parent="0VnJ7Uc4w5-QSn8PoFOb-190">
          <mxGeometry width="50" height="50" relative="1" as="geometry">
            <mxPoint x="5.567010309278349" y="9.191111111111086" as="sourcePoint" />
            <mxPoint x="33.4020618556701" y="9.191111111111086" as="targetPoint" />
          </mxGeometry>
        </mxCell>
        <mxCell id="0VnJ7Uc4w5-QSn8PoFOb-193" value="" style="whiteSpace=wrap;html=1;aspect=fixed;sketch=1;curveFitting=1;jiggle=2;fillColor=none;" vertex="1" parent="0VnJ7Uc4w5-QSn8PoFOb-190">
          <mxGeometry x="6.958762886597937" y="39.13555555555553" width="6.060768011542291" height="6.060768011542291" as="geometry" />
        </mxCell>
        <mxCell id="0VnJ7Uc4w5-QSn8PoFOb-194" value="" style="html=1;verticalLabelPosition=bottom;align=center;labelBackgroundColor=#ffffff;verticalAlign=top;strokeWidth=1;strokeColor=#1A1A1A;shadow=0;dashed=0;shape=mxgraph.ios7.icons.user;aspect=fixed;" vertex="1" parent="0VnJ7Uc4w5-QSn8PoFOb-190">
          <mxGeometry x="62.574865755640836" y="5.979161021505385" width="19.449601519511134" height="19.449601519511134" as="geometry" />
        </mxCell>
        <mxCell id="0VnJ7Uc4w5-QSn8PoFOb-195" value="" style="group" vertex="1" connectable="0" parent="0VnJ7Uc4w5-QSn8PoFOb-38">
          <mxGeometry x="291.41" y="737.6276529545673" width="89.99999999999999" height="55" as="geometry" />
        </mxCell>
        <mxCell id="0VnJ7Uc4w5-QSn8PoFOb-196" value="" style="rounded=1;whiteSpace=wrap;html=1;arcSize=5;strokeColor=#333333;gradientColor=#F7F7F7;gradientDirection=radial;fillColor=#FFFFFF;align=center;verticalAlign=middle;fontFamily=Helvetica;fontSize=12;fontColor=default;" vertex="1" parent="0VnJ7Uc4w5-QSn8PoFOb-195">
          <mxGeometry width="89.99999999999999" height="55" as="geometry" />
        </mxCell>
        <mxCell id="0VnJ7Uc4w5-QSn8PoFOb-197" value="" style="endArrow=none;html=1;rounded=0;sketch=1;curveFitting=1;jiggle=2;" edge="1" parent="0VnJ7Uc4w5-QSn8PoFOb-195">
          <mxGeometry width="50" height="50" relative="1" as="geometry">
            <mxPoint x="5.567010309278349" y="9.191111111111086" as="sourcePoint" />
            <mxPoint x="33.4020618556701" y="9.191111111111086" as="targetPoint" />
          </mxGeometry>
        </mxCell>
        <mxCell id="0VnJ7Uc4w5-QSn8PoFOb-198" value="" style="html=1;verticalLabelPosition=bottom;align=center;labelBackgroundColor=#ffffff;verticalAlign=top;strokeWidth=1;strokeColor=#1A1A1A;shadow=0;dashed=0;shape=mxgraph.ios7.icons.user;aspect=fixed;" vertex="1" parent="0VnJ7Uc4w5-QSn8PoFOb-195">
          <mxGeometry x="62.574865755640836" y="5.979161021505385" width="19.449601519511134" height="19.449601519511134" as="geometry" />
        </mxCell>
        <mxCell id="0VnJ7Uc4w5-QSn8PoFOb-199" value="" style="group" vertex="1" connectable="0" parent="0VnJ7Uc4w5-QSn8PoFOb-38">
          <mxGeometry x="381.41" y="737.6276529545673" width="89.99999999999999" height="55" as="geometry" />
        </mxCell>
        <mxCell id="0VnJ7Uc4w5-QSn8PoFOb-200" value="" style="rounded=1;whiteSpace=wrap;html=1;arcSize=5;strokeColor=#333333;gradientColor=#F7F7F7;gradientDirection=radial;fillColor=#FFFFFF;align=center;verticalAlign=middle;fontFamily=Helvetica;fontSize=12;fontColor=default;" vertex="1" parent="0VnJ7Uc4w5-QSn8PoFOb-199">
          <mxGeometry width="89.99999999999999" height="55" as="geometry" />
        </mxCell>
        <mxCell id="0VnJ7Uc4w5-QSn8PoFOb-201" value="" style="endArrow=none;html=1;rounded=0;sketch=1;curveFitting=1;jiggle=2;" edge="1" parent="0VnJ7Uc4w5-QSn8PoFOb-199">
          <mxGeometry width="50" height="50" relative="1" as="geometry">
            <mxPoint x="5.567010309278349" y="9.191111111111086" as="sourcePoint" />
            <mxPoint x="33.4020618556701" y="9.191111111111086" as="targetPoint" />
          </mxGeometry>
        </mxCell>
        <mxCell id="0VnJ7Uc4w5-QSn8PoFOb-202" value="" style="html=1;verticalLabelPosition=bottom;align=center;labelBackgroundColor=#ffffff;verticalAlign=top;strokeWidth=1;strokeColor=#1A1A1A;shadow=0;dashed=0;shape=mxgraph.ios7.icons.user;aspect=fixed;" vertex="1" parent="0VnJ7Uc4w5-QSn8PoFOb-199">
          <mxGeometry x="62.574865755640836" y="5.979161021505385" width="19.449601519511134" height="19.449601519511134" as="geometry" />
        </mxCell>
        <mxCell id="0VnJ7Uc4w5-QSn8PoFOb-203" value="" style="group;opacity=60;" vertex="1" connectable="0" parent="0VnJ7Uc4w5-QSn8PoFOb-38">
          <mxGeometry x="471.40999999999997" y="737.6276529545673" width="89.99999999999999" height="55" as="geometry" />
        </mxCell>
        <mxCell id="0VnJ7Uc4w5-QSn8PoFOb-204" value="" style="rounded=1;whiteSpace=wrap;html=1;arcSize=5;strokeColor=#333333;gradientColor=#F7F7F7;gradientDirection=radial;fillColor=#FFFFFF;align=center;verticalAlign=middle;fontFamily=Helvetica;fontSize=12;fontColor=default;" vertex="1" parent="0VnJ7Uc4w5-QSn8PoFOb-203">
          <mxGeometry width="89.99999999999999" height="55" as="geometry" />
        </mxCell>
        <mxCell id="0VnJ7Uc4w5-QSn8PoFOb-205" value="" style="endArrow=none;html=1;rounded=0;sketch=1;curveFitting=1;jiggle=2;" edge="1" parent="0VnJ7Uc4w5-QSn8PoFOb-203">
          <mxGeometry width="50" height="50" relative="1" as="geometry">
            <mxPoint x="5.567010309278349" y="9.191111111111086" as="sourcePoint" />
            <mxPoint x="33.4020618556701" y="9.191111111111086" as="targetPoint" />
          </mxGeometry>
        </mxCell>
        <mxCell id="0VnJ7Uc4w5-QSn8PoFOb-206" value="" style="html=1;verticalLabelPosition=bottom;align=center;labelBackgroundColor=#ffffff;verticalAlign=top;strokeWidth=1;strokeColor=#1A1A1A;shadow=0;dashed=0;shape=mxgraph.ios7.icons.user;aspect=fixed;" vertex="1" parent="0VnJ7Uc4w5-QSn8PoFOb-203">
          <mxGeometry x="62.574865755640836" y="5.979161021505385" width="19.449601519511134" height="19.449601519511134" as="geometry" />
        </mxCell>
        <mxCell id="0VnJ7Uc4w5-QSn8PoFOb-207" value="" style="group" vertex="1" connectable="0" parent="0VnJ7Uc4w5-QSn8PoFOb-38">
          <mxGeometry y="126.25005787494972" width="648.41" height="55.35309704935273" as="geometry" />
        </mxCell>
        <mxCell id="0VnJ7Uc4w5-QSn8PoFOb-208" value="" style="group;rounded=1;opacity=70;strokeColor=#808080;align=center;verticalAlign=middle;arcSize=5;fontFamily=Helvetica;fontSize=12;fontColor=default;fillColor=#F2F2F2;gradientColor=#CCCCCC;gradientDirection=radial;" vertex="1" connectable="0" parent="0VnJ7Uc4w5-QSn8PoFOb-207">
          <mxGeometry x="18.41000000000008" y="0.2920439418984548" width="89.99999999999999" height="54.707956058101544" as="geometry" />
        </mxCell>
        <mxCell id="0VnJ7Uc4w5-QSn8PoFOb-209" value="" style="rounded=1;whiteSpace=wrap;html=1;arcSize=5;strokeColor=#808080;gradientColor=#CCCCCC;gradientDirection=radial;fillColor=#F2F2F2;align=center;verticalAlign=middle;fontFamily=Helvetica;fontSize=12;fontColor=default;opacity=70;" vertex="1" parent="0VnJ7Uc4w5-QSn8PoFOb-208">
          <mxGeometry width="89.99999999999999" height="54.707956058101544" as="geometry" />
        </mxCell>
        <mxCell id="0VnJ7Uc4w5-QSn8PoFOb-210" value="" style="endArrow=none;html=1;rounded=1;sketch=1;curveFitting=1;jiggle=2;opacity=70;strokeColor=#808080;align=center;verticalAlign=middle;arcSize=5;fontFamily=Helvetica;fontSize=12;fontColor=default;fillColor=#F2F2F2;gradientColor=#CCCCCC;gradientDirection=radial;" edge="1" parent="0VnJ7Uc4w5-QSn8PoFOb-208">
          <mxGeometry width="50" height="50" relative="1" as="geometry">
            <mxPoint x="5.567010309278349" y="9.142307323487167" as="sourcePoint" />
            <mxPoint x="33.4020618556701" y="9.142307323487167" as="targetPoint" />
          </mxGeometry>
        </mxCell>
        <mxCell id="0VnJ7Uc4w5-QSn8PoFOb-211" value="" style="whiteSpace=wrap;html=1;aspect=fixed;fillColor=#F2F2F2;opacity=70;rounded=1;strokeColor=#808080;align=center;verticalAlign=middle;arcSize=5;fontFamily=Helvetica;fontSize=12;fontColor=default;gradientColor=#CCCCCC;gradientDirection=radial;" vertex="1" parent="0VnJ7Uc4w5-QSn8PoFOb-208">
          <mxGeometry x="6.958762886597937" y="38.92775006623134" width="5.480532728162037" height="5.480532728162037" as="geometry" />
        </mxCell>
        <mxCell id="0VnJ7Uc4w5-QSn8PoFOb-212" value="" style="html=1;verticalLabelPosition=bottom;align=center;labelBackgroundColor=#ffffff;verticalAlign=middle;strokeWidth=1;strokeColor=#808080;shadow=0;dashed=0;shape=mxgraph.ios7.icons.user;aspect=fixed;opacity=70;rounded=1;arcSize=5;fontFamily=Helvetica;fontSize=12;fontColor=default;fillColor=#F2F2F2;gradientColor=#CCCCCC;gradientDirection=radial;" vertex="1" parent="0VnJ7Uc4w5-QSn8PoFOb-208">
          <mxGeometry x="62.574865755640836" y="5.931482665511542" width="17.587569343421492" height="17.587569343421492" as="geometry" />
        </mxCell>
        <mxCell id="0VnJ7Uc4w5-QSn8PoFOb-213" value="" style="group;rounded=1;opacity=70;strokeColor=#808080;align=center;verticalAlign=middle;arcSize=5;fontFamily=Helvetica;fontSize=12;fontColor=default;fillColor=#F2F2F2;gradientColor=#CCCCCC;gradientDirection=radial;" vertex="1" connectable="0" parent="0VnJ7Uc4w5-QSn8PoFOb-207">
          <mxGeometry x="108.41000000000005" width="89.99999999999999" height="54.707956058101544" as="geometry" />
        </mxCell>
        <mxCell id="0VnJ7Uc4w5-QSn8PoFOb-214" value="" style="rounded=1;whiteSpace=wrap;html=1;arcSize=5;strokeColor=#808080;gradientColor=#CCCCCC;gradientDirection=radial;fillColor=#F2F2F2;align=center;verticalAlign=middle;fontFamily=Helvetica;fontSize=12;fontColor=default;opacity=70;" vertex="1" parent="0VnJ7Uc4w5-QSn8PoFOb-213">
          <mxGeometry width="89.99999999999999" height="54.707956058101544" as="geometry" />
        </mxCell>
        <mxCell id="0VnJ7Uc4w5-QSn8PoFOb-215" value="" style="endArrow=none;html=1;rounded=1;sketch=1;curveFitting=1;jiggle=2;opacity=70;strokeColor=#808080;align=center;verticalAlign=middle;arcSize=5;fontFamily=Helvetica;fontSize=12;fontColor=default;fillColor=#F2F2F2;gradientColor=#CCCCCC;gradientDirection=radial;" edge="1" parent="0VnJ7Uc4w5-QSn8PoFOb-213">
          <mxGeometry width="50" height="50" relative="1" as="geometry">
            <mxPoint x="5.567010309278349" y="9.142307323487167" as="sourcePoint" />
            <mxPoint x="33.4020618556701" y="9.142307323487167" as="targetPoint" />
          </mxGeometry>
        </mxCell>
        <mxCell id="0VnJ7Uc4w5-QSn8PoFOb-216" value="" style="html=1;verticalLabelPosition=bottom;align=center;labelBackgroundColor=#ffffff;verticalAlign=middle;strokeWidth=1;strokeColor=#808080;shadow=0;dashed=0;shape=mxgraph.ios7.icons.user;aspect=fixed;opacity=70;rounded=1;arcSize=5;fontFamily=Helvetica;fontSize=12;fontColor=default;fillColor=#F2F2F2;gradientColor=#CCCCCC;gradientDirection=radial;" vertex="1" parent="0VnJ7Uc4w5-QSn8PoFOb-213">
          <mxGeometry x="62.574865755640836" y="5.931482665511542" width="17.587569343421492" height="17.587569343421492" as="geometry" />
        </mxCell>
        <mxCell id="0VnJ7Uc4w5-QSn8PoFOb-217" value="" style="group;pointerEvents=0;align=center;verticalAlign=middle;fontFamily=Helvetica;fontSize=12;fontColor=default;fillColor=#F2F2F2;gradientColor=#CCCCCC;opacity=70;rounded=1;strokeColor=#808080;arcSize=5;gradientDirection=radial;" vertex="1" connectable="0" parent="0VnJ7Uc4w5-QSn8PoFOb-207">
          <mxGeometry x="198.41000000000003" width="89.99999999999999" height="54.707956058101544" as="geometry" />
        </mxCell>
        <mxCell id="0VnJ7Uc4w5-QSn8PoFOb-218" value="" style="rounded=1;whiteSpace=wrap;html=1;arcSize=5;strokeColor=#808080;gradientColor=#CCCCCC;gradientDirection=radial;fillColor=#F2F2F2;pointerEvents=0;align=center;verticalAlign=middle;fontFamily=Helvetica;fontSize=12;fontColor=default;opacity=70;" vertex="1" parent="0VnJ7Uc4w5-QSn8PoFOb-217">
          <mxGeometry width="89.99999999999999" height="54.707956058101544" as="geometry" />
        </mxCell>
        <mxCell id="0VnJ7Uc4w5-QSn8PoFOb-219" value="" style="endArrow=none;html=1;rounded=1;sketch=1;curveFitting=1;jiggle=2;pointerEvents=0;align=center;verticalAlign=middle;fontFamily=Helvetica;fontSize=12;fontColor=default;fillColor=#F2F2F2;gradientColor=#CCCCCC;opacity=70;strokeColor=#808080;arcSize=5;gradientDirection=radial;" edge="1" parent="0VnJ7Uc4w5-QSn8PoFOb-217">
          <mxGeometry width="50" height="50" relative="1" as="geometry">
            <mxPoint x="5.567010309278349" y="9.142307323487167" as="sourcePoint" />
            <mxPoint x="33.4020618556701" y="9.142307323487167" as="targetPoint" />
          </mxGeometry>
        </mxCell>
        <mxCell id="0VnJ7Uc4w5-QSn8PoFOb-220" value="" style="whiteSpace=wrap;html=1;aspect=fixed;fillColor=#F2F2F2;pointerEvents=0;align=center;verticalAlign=middle;fontFamily=Helvetica;fontSize=12;fontColor=default;gradientColor=#CCCCCC;opacity=70;rounded=1;strokeColor=#808080;arcSize=5;gradientDirection=radial;" vertex="1" parent="0VnJ7Uc4w5-QSn8PoFOb-217">
          <mxGeometry x="6.958762886597937" y="38.92775006623134" width="5.480532728162037" height="5.480532728162037" as="geometry" />
        </mxCell>
        <mxCell id="0VnJ7Uc4w5-QSn8PoFOb-221" value="" style="html=1;verticalLabelPosition=bottom;align=center;labelBackgroundColor=#ffffff;verticalAlign=middle;strokeWidth=1;strokeColor=#808080;shadow=0;dashed=0;shape=mxgraph.ios7.icons.user;aspect=fixed;pointerEvents=0;fontFamily=Helvetica;fontSize=12;fontColor=default;fillColor=#F2F2F2;gradientColor=#CCCCCC;opacity=70;rounded=1;arcSize=5;gradientDirection=radial;" vertex="1" parent="0VnJ7Uc4w5-QSn8PoFOb-217">
          <mxGeometry x="62.574865755640836" y="5.931482665511542" width="17.587569343421492" height="17.587569343421492" as="geometry" />
        </mxCell>
        <mxCell id="0VnJ7Uc4w5-QSn8PoFOb-222" value="" style="rounded=1;whiteSpace=wrap;html=1;arcSize=5;gradientColor=#CCCCCC;gradientDirection=radial;strokeColor=#808080;align=center;verticalAlign=middle;fontFamily=Helvetica;fontSize=12;fontColor=default;fillColor=#F2F2F2;opacity=70;" vertex="1" parent="0VnJ7Uc4w5-QSn8PoFOb-207">
          <mxGeometry y="0.2920439418984548" width="18.375427276599243" height="54.707956058101544" as="geometry" />
        </mxCell>
        <mxCell id="0VnJ7Uc4w5-QSn8PoFOb-223" value="" style="group" vertex="1" connectable="0" parent="0VnJ7Uc4w5-QSn8PoFOb-207">
          <mxGeometry x="378.41" width="89.99999999999999" height="54.707956058101544" as="geometry" />
        </mxCell>
        <mxCell id="0VnJ7Uc4w5-QSn8PoFOb-224" value="" style="rounded=1;whiteSpace=wrap;html=1;arcSize=5;strokeColor=#333333;gradientColor=#F7F7F7;gradientDirection=radial;fillColor=#FFFFFF;" vertex="1" parent="0VnJ7Uc4w5-QSn8PoFOb-223">
          <mxGeometry width="89.99999999999999" height="54.707956058101544" as="geometry" />
        </mxCell>
        <mxCell id="0VnJ7Uc4w5-QSn8PoFOb-225" value="" style="endArrow=none;html=1;rounded=0;sketch=1;curveFitting=1;jiggle=2;" edge="1" parent="0VnJ7Uc4w5-QSn8PoFOb-223">
          <mxGeometry width="50" height="50" relative="1" as="geometry">
            <mxPoint x="5.567010309278349" y="9.142307323487167" as="sourcePoint" />
            <mxPoint x="33.4020618556701" y="9.142307323487167" as="targetPoint" />
          </mxGeometry>
        </mxCell>
        <mxCell id="0VnJ7Uc4w5-QSn8PoFOb-226" value="" style="whiteSpace=wrap;html=1;aspect=fixed;sketch=1;curveFitting=1;jiggle=2;fillColor=none;" vertex="1" parent="0VnJ7Uc4w5-QSn8PoFOb-223">
          <mxGeometry x="6.958762886597937" y="38.92775006623134" width="5.480532728162037" height="5.480532728162037" as="geometry" />
        </mxCell>
        <mxCell id="0VnJ7Uc4w5-QSn8PoFOb-227" value="" style="html=1;verticalLabelPosition=bottom;align=center;labelBackgroundColor=#ffffff;verticalAlign=top;strokeWidth=1;strokeColor=#1A1A1A;shadow=0;dashed=0;shape=mxgraph.ios7.icons.user;aspect=fixed;" vertex="1" parent="0VnJ7Uc4w5-QSn8PoFOb-223">
          <mxGeometry x="62.574865755640836" y="5.931482665511542" width="17.587569343421492" height="17.587569343421492" as="geometry" />
        </mxCell>
        <mxCell id="0VnJ7Uc4w5-QSn8PoFOb-228" value="" style="group;opacity=60;" vertex="1" connectable="0" parent="0VnJ7Uc4w5-QSn8PoFOb-207">
          <mxGeometry x="468.40999999999997" width="89.99999999999999" height="54.707956058101544" as="geometry" />
        </mxCell>
        <mxCell id="0VnJ7Uc4w5-QSn8PoFOb-229" value="" style="rounded=1;whiteSpace=wrap;html=1;arcSize=5;strokeColor=#333333;gradientColor=#F7F7F7;gradientDirection=radial;fillColor=#FFFFFF;align=center;verticalAlign=middle;fontFamily=Helvetica;fontSize=12;fontColor=default;" vertex="1" parent="0VnJ7Uc4w5-QSn8PoFOb-228">
          <mxGeometry width="89.99999999999999" height="54.707956058101544" as="geometry" />
        </mxCell>
        <mxCell id="0VnJ7Uc4w5-QSn8PoFOb-230" value="" style="endArrow=none;html=1;rounded=0;sketch=1;curveFitting=1;jiggle=2;" edge="1" parent="0VnJ7Uc4w5-QSn8PoFOb-228">
          <mxGeometry width="50" height="50" relative="1" as="geometry">
            <mxPoint x="5.567010309278349" y="9.142307323487167" as="sourcePoint" />
            <mxPoint x="33.4020618556701" y="9.142307323487167" as="targetPoint" />
          </mxGeometry>
        </mxCell>
        <mxCell id="0VnJ7Uc4w5-QSn8PoFOb-231" value="" style="html=1;verticalLabelPosition=bottom;align=center;labelBackgroundColor=#ffffff;verticalAlign=top;strokeWidth=1;strokeColor=#1A1A1A;shadow=0;dashed=0;shape=mxgraph.ios7.icons.user;aspect=fixed;" vertex="1" parent="0VnJ7Uc4w5-QSn8PoFOb-228">
          <mxGeometry x="62.574865755640836" y="5.931482665511542" width="17.587569343421492" height="17.587569343421492" as="geometry" />
        </mxCell>
        <mxCell id="0VnJ7Uc4w5-QSn8PoFOb-232" value="" style="rounded=1;whiteSpace=wrap;html=1;arcSize=5;strokeColor=#808080;gradientColor=#CCCCCC;gradientDirection=radial;fillColor=#F2F2F2;opacity=70;pointerEvents=0;align=center;verticalAlign=middle;fontFamily=Helvetica;fontSize=12;fontColor=default;" vertex="1" parent="0VnJ7Uc4w5-QSn8PoFOb-207">
          <mxGeometry x="288.4100000000001" width="89.99999999999999" height="54.707956058101544" as="geometry" />
        </mxCell>
        <mxCell id="0VnJ7Uc4w5-QSn8PoFOb-233" value="" style="endArrow=none;html=1;rounded=0;sketch=1;curveFitting=1;jiggle=2;opacity=50;" edge="1" parent="0VnJ7Uc4w5-QSn8PoFOb-207">
          <mxGeometry width="50" height="50" relative="1" as="geometry">
            <mxPoint x="293.97701030927846" y="9.142307323487167" as="sourcePoint" />
            <mxPoint x="321.8120618556702" y="9.142307323487167" as="targetPoint" />
          </mxGeometry>
        </mxCell>
        <mxCell id="0VnJ7Uc4w5-QSn8PoFOb-234" value="" style="whiteSpace=wrap;html=1;aspect=fixed;fillColor=#F2F2F2;strokeColor=#808080;rounded=1;pointerEvents=0;opacity=70;align=center;verticalAlign=middle;arcSize=5;fontFamily=Helvetica;fontSize=12;fontColor=default;gradientColor=#CCCCCC;gradientDirection=radial;" vertex="1" parent="0VnJ7Uc4w5-QSn8PoFOb-207">
          <mxGeometry x="217.36876288659803" y="38.92775006623134" width="5.480532728162037" height="5.480532728162037" as="geometry" />
        </mxCell>
        <mxCell id="0VnJ7Uc4w5-QSn8PoFOb-235" value="" style="html=1;verticalLabelPosition=bottom;align=center;labelBackgroundColor=#ffffff;verticalAlign=middle;strokeWidth=1;strokeColor=#808080;shadow=0;dashed=0;shape=mxgraph.ios7.icons.user;aspect=fixed;opacity=70;rounded=1;pointerEvents=0;arcSize=5;fontFamily=Helvetica;fontSize=12;fontColor=default;fillColor=none;gradientColor=#CCCCCC;gradientDirection=radial;" vertex="1" parent="0VnJ7Uc4w5-QSn8PoFOb-207">
          <mxGeometry x="350.9848657556409" y="5.931482665511542" width="17.587569343421492" height="17.587569343421492" as="geometry" />
        </mxCell>
        <mxCell id="0VnJ7Uc4w5-QSn8PoFOb-236" value="" style="rounded=1;whiteSpace=wrap;html=1;arcSize=5;strokeColor=#333333;gradientColor=#F7F7F7;gradientDirection=radial;fillColor=#FFFFFF;align=center;verticalAlign=middle;fontFamily=Helvetica;fontSize=12;fontColor=default;" vertex="1" parent="0VnJ7Uc4w5-QSn8PoFOb-207">
          <mxGeometry x="558.41" width="72.88793550530374" height="55" as="geometry" />
        </mxCell>
        <mxCell id="0VnJ7Uc4w5-QSn8PoFOb-237" value="" style="endArrow=none;html=1;rounded=0;sketch=1;curveFitting=1;jiggle=2;" edge="1" parent="0VnJ7Uc4w5-QSn8PoFOb-207">
          <mxGeometry width="50" height="50" relative="1" as="geometry">
            <mxPoint x="563.9684642243841" y="9.25011755135848" as="sourcePoint" />
            <mxPoint x="591.7607853463047" y="9.25011755135848" as="targetPoint" />
          </mxGeometry>
        </mxCell>
        <mxCell id="0VnJ7Uc4w5-QSn8PoFOb-238" value="" style="html=1;verticalLabelPosition=bottom;align=center;labelBackgroundColor=#ffffff;verticalAlign=top;strokeWidth=1;strokeColor=#1A1A1A;shadow=0;dashed=0;shape=mxgraph.ios7.icons.user;aspect=fixed;" vertex="1" parent="0VnJ7Uc4w5-QSn8PoFOb-207">
          <mxGeometry x="607.9210429292988" y="6.036806753548236" width="17.56057013696388" height="17.56057013696388" as="geometry" />
        </mxCell>
        <mxCell id="0VnJ7Uc4w5-QSn8PoFOb-239" value="" style="group" vertex="1" connectable="0" parent="0VnJ7Uc4w5-QSn8PoFOb-38">
          <mxGeometry x="560.41" y="432.52334642343885" width="72.88793550530374" height="55" as="geometry" />
        </mxCell>
        <mxCell id="0VnJ7Uc4w5-QSn8PoFOb-240" value="" style="rounded=1;whiteSpace=wrap;html=1;arcSize=5;strokeColor=#333333;gradientColor=#F7F7F7;gradientDirection=radial;fillColor=#FFFFFF;align=center;verticalAlign=middle;fontFamily=Helvetica;fontSize=12;fontColor=default;" vertex="1" parent="0VnJ7Uc4w5-QSn8PoFOb-239">
          <mxGeometry width="72.88793550530374" height="55.000000000000014" as="geometry" />
        </mxCell>
        <mxCell id="0VnJ7Uc4w5-QSn8PoFOb-241" value="" style="endArrow=none;html=1;rounded=0;sketch=1;curveFitting=1;jiggle=2;" edge="1" parent="0VnJ7Uc4w5-QSn8PoFOb-239">
          <mxGeometry width="50" height="50" relative="1" as="geometry">
            <mxPoint x="5.5584642243841245" y="9.191111111111068" as="sourcePoint" />
            <mxPoint x="33.35078534630475" y="9.191111111111068" as="targetPoint" />
          </mxGeometry>
        </mxCell>
        <mxCell id="0VnJ7Uc4w5-QSn8PoFOb-242" value="" style="html=1;verticalLabelPosition=bottom;align=center;labelBackgroundColor=#ffffff;verticalAlign=top;strokeWidth=1;strokeColor=#1A1A1A;shadow=0;dashed=0;shape=mxgraph.ios7.icons.user;aspect=fixed;" vertex="1" parent="0VnJ7Uc4w5-QSn8PoFOb-239">
          <mxGeometry x="49.51104292929881" y="5.979161021505375" width="18.844435483088333" height="18.844435483088333" as="geometry" />
        </mxCell>
        <mxCell id="0VnJ7Uc4w5-QSn8PoFOb-243" value="&lt;font color=&quot;#ffffff&quot; style=&quot;font-size: 24px;&quot; data-font-src=&quot;https://fonts.googleapis.com/css?family=Architects+Daughter&quot; face=&quot;Architects Daughter&quot;&gt;&lt;span&gt;12&lt;/span&gt;&lt;/font&gt;" style="ellipse;whiteSpace=wrap;html=1;aspect=fixed;fillColor=#67AB9F;strokeColor=#67AB9F;strokeWidth=2;shadow=0;fontStyle=0" vertex="1" parent="0VnJ7Uc4w5-QSn8PoFOb-38">
          <mxGeometry x="122.41000000000008" y="374" width="35" height="35" as="geometry" />
        </mxCell>
        <UserObject label="" link="data:action/json,{&quot;actions&quot;:[{&quot;show&quot;:{&quot;cells&quot;:[&quot;shadow&quot;,&quot;buttons2&quot;]}}]}" id="0VnJ7Uc4w5-QSn8PoFOb-244">
          <mxCell style="group;aspect=fixed;" vertex="1" connectable="0" parent="1">
            <mxGeometry x="733" y="1492" width="120" height="120" as="geometry" />
          </mxCell>
        </UserObject>
        <mxCell id="0VnJ7Uc4w5-QSn8PoFOb-245" value="" style="ellipse;whiteSpace=wrap;html=1;aspect=fixed;strokeWidth=2;container=0;sketch=1;curveFitting=1;jiggle=2;" vertex="1" parent="0VnJ7Uc4w5-QSn8PoFOb-244">
          <mxGeometry width="119.99999999999994" height="119.99999999999994" as="geometry" />
        </mxCell>
        <mxCell id="0VnJ7Uc4w5-QSn8PoFOb-246" value="" style="group;strokeWidth=5;sketch=1;curveFitting=1;jiggle=2;" vertex="1" connectable="0" parent="0VnJ7Uc4w5-QSn8PoFOb-244">
          <mxGeometry x="31.69468064069596" y="32.31164722167293" width="55.368795728692874" height="55.368795728692874" as="geometry" />
        </mxCell>
        <mxCell id="0VnJ7Uc4w5-QSn8PoFOb-247" value="" style="endArrow=none;html=1;rounded=0;strokeWidth=4;sketch=1;curveFitting=1;jiggle=2;" edge="1" parent="0VnJ7Uc4w5-QSn8PoFOb-246">
          <mxGeometry width="50" height="50" relative="1" as="geometry">
            <mxPoint y="27.227605299584834" as="sourcePoint" />
            <mxPoint x="55.368795728692874" y="27.684397864346437" as="targetPoint" />
          </mxGeometry>
        </mxCell>
        <mxCell id="0VnJ7Uc4w5-QSn8PoFOb-248" value="" style="endArrow=none;html=1;rounded=0;strokeWidth=4;sketch=1;curveFitting=1;jiggle=2;" edge="1" parent="0VnJ7Uc4w5-QSn8PoFOb-246">
          <mxGeometry width="50" height="50" relative="1" as="geometry">
            <mxPoint x="27.227605299584738" as="sourcePoint" />
            <mxPoint x="27.227605299584738" y="55.368795728692874" as="targetPoint" />
            <Array as="points" />
          </mxGeometry>
        </mxCell>
        <mxCell id="0VnJ7Uc4w5-QSn8PoFOb-249" value="&lt;font style=&quot;font-size: 40px;&quot;&gt;TEAM&lt;/font&gt;" style="text;html=1;align=center;verticalAlign=middle;resizable=0;points=[];autosize=1;strokeColor=none;fillColor=none;strokeWidth=1;fontStyle=0;fontFamily=Verdana;fontColor=#67AB9F;" vertex="1" parent="1">
          <mxGeometry x="274" y="1772" width="130" height="60" as="geometry" />
        </mxCell>
        <mxCell id="0VnJ7Uc4w5-QSn8PoFOb-250" value="" style="endArrow=none;html=1;rounded=0;exitX=0.692;exitY=-0.117;exitDx=0;exitDy=0;exitPerimeter=0;strokeWidth=1;strokeColor=#67AB9F;sketch=1;curveFitting=1;jiggle=2;endSize=5;" edge="1" parent="1" source="0VnJ7Uc4w5-QSn8PoFOb-249">
          <mxGeometry width="50" height="50" relative="1" as="geometry">
            <mxPoint x="414" y="1710" as="sourcePoint" />
            <mxPoint x="464" y="1660" as="targetPoint" />
          </mxGeometry>
        </mxCell>
        <mxCell id="0VnJ7Uc4w5-QSn8PoFOb-251" value="" style="endArrow=none;html=1;rounded=0;strokeWidth=1;strokeColor=#67AB9F;exitX=0.528;exitY=-0.041;exitDx=0;exitDy=0;exitPerimeter=0;sketch=1;curveFitting=1;jiggle=2;" edge="1" parent="1" source="0VnJ7Uc4w5-QSn8PoFOb-252">
          <mxGeometry width="50" height="50" relative="1" as="geometry">
            <mxPoint x="614" y="1747" as="sourcePoint" />
            <mxPoint x="633.7662908277405" y="1667" as="targetPoint" />
          </mxGeometry>
        </mxCell>
        <mxCell id="0VnJ7Uc4w5-QSn8PoFOb-252" value="&lt;font style=&quot;font-size: 40px;&quot;&gt;ARCHIV&lt;/font&gt;" style="text;html=1;align=center;verticalAlign=middle;resizable=0;points=[];autosize=1;strokeColor=#67AB9F;fillColor=none;strokeWidth=1;fontStyle=0;fontFamily=Verdana;fontColor=#67AB9F;" vertex="1" parent="1">
          <mxGeometry x="509" y="1810" width="180" height="60" as="geometry" />
        </mxCell>
        <mxCell id="0VnJ7Uc4w5-QSn8PoFOb-253" value="&lt;font style=&quot;font-size: 40px;&quot;&gt;STATISTIK&lt;/font&gt;" style="text;html=1;align=center;verticalAlign=middle;resizable=0;points=[];autosize=1;strokeColor=#67AB9F;fillColor=none;strokeWidth=1;fontStyle=0;fontFamily=Verdana;fontColor=#67AB9F;" vertex="1" parent="1">
          <mxGeometry x="799" y="1760" width="240" height="60" as="geometry" />
        </mxCell>
        <mxCell id="0VnJ7Uc4w5-QSn8PoFOb-254" value="" style="endArrow=none;html=1;rounded=0;strokeWidth=1;strokeColor=#67AB9F;sketch=1;curveFitting=1;jiggle=2;" edge="1" parent="1">
          <mxGeometry width="50" height="50" relative="1" as="geometry">
            <mxPoint x="934" y="1763" as="sourcePoint" />
            <mxPoint x="943.7662908277405" y="1660" as="targetPoint" />
          </mxGeometry>
        </mxCell>
        <mxCell id="0VnJ7Uc4w5-QSn8PoFOb-255" value="" style="endArrow=none;html=1;rounded=0;strokeWidth=1;strokeColor=#67AB9F;sketch=1;curveFitting=1;jiggle=2;" edge="1" parent="1" source="0VnJ7Uc4w5-QSn8PoFOb-256">
          <mxGeometry width="50" height="50" relative="1" as="geometry">
            <mxPoint x="1114" y="1763" as="sourcePoint" />
            <mxPoint x="1123.7662908277405" y="1660" as="targetPoint" />
          </mxGeometry>
        </mxCell>
        <mxCell id="0VnJ7Uc4w5-QSn8PoFOb-256" value="&lt;font style=&quot;font-size: 40px;&quot;&gt;EIN-&lt;/font&gt;&lt;div&gt;&lt;font style=&quot;font-size: 40px;&quot;&gt;STELLUNGEN&lt;/font&gt;&lt;/div&gt;" style="text;html=1;align=center;verticalAlign=middle;resizable=0;points=[];autosize=1;strokeColor=#67AB9F;fillColor=none;strokeWidth=1;fontStyle=0;fontFamily=Verdana;fontColor=#67AB9F;" vertex="1" parent="1">
          <mxGeometry x="1089" y="1760" width="290" height="110" as="geometry" />
        </mxCell>
      </root>
    </mxGraphModel>
  </diagram>
</mxfile>
